<svg width="78" height="75" viewBox="0 0 78 75" fill="none" xmlns="http://www.w3.org/2000/svg">
<g clip-path="url(#clip0_8_369)">
<path d="M2.53677 69.5L6.51394 13.5H71.3655L75.3426 69.5H2.53677Z" fill="white" stroke="black"/>
<path d="M37.9015 19.5795L38.1517 19.3447C38.845 18.6939 38.826 17.587 38.1107 16.9604C36.9932 15.9813 37.6857 14.14 39.1715 14.14H71.3252L75.3734 69.43H70.6684C70.1056 69.43 69.5541 69.2717 69.077 68.9731L66.0311 67.067C65.5239 66.7496 65.1232 66.2878 64.8805 65.741L61.2857 57.6424C60.9148 56.8068 60.1832 56.186 59.2984 55.956L55.0034 54.8395C54.4278 54.6899 53.9096 54.3725 53.5147 53.9277L48.1478 47.8823C47.7529 47.4375 47.2347 47.1201 46.6591 46.9705L43.819 46.2322C42.2344 45.8203 41.2727 44.214 41.658 42.6227L41.9632 41.3624C42.2718 40.0877 41.7166 38.7603 40.5923 38.0848L36.3466 35.5342C35.4438 34.9918 34.8915 34.0157 34.8915 32.9625V30.5813C34.8915 29.9007 35.1229 29.2404 35.5478 28.7087L38.2388 25.3405C38.9204 24.4875 38.8321 23.254 38.036 22.5067L37.9015 22.3805C37.0933 21.6218 37.0933 20.3382 37.9015 19.5795Z" fill="#95C843" stroke="black" stroke-width="0.5"/>
<path d="M45.518 14.14L54.6264 14.14L59.6867 68.86L49.5662 68.86L45.518 14.14Z" fill="#F1CDAA"/>
<path d="M13.0258 14.2262L24 14.2262L21 62.9896L9 63L13.0258 14.2262Z" fill="#D9D9D9"/>
<path d="M74 54L74.6673 62.9432L9 63L9.74285 54L74 54Z" fill="#D9D9D9"/>
<path d="M13.0258 14.2262L24 14.2262L21 62.9896L9 63L13.0258 14.2262Z" fill="#D9D9D9"/>
<path d="M45 47C38.3726 47 33 41.6274 33 35C33 28.3726 38.3726 23 45 23C51.6274 23 57 28.3726 57 35C57 41.6274 51.6274 47 45 47Z" fill="#A1D9F3" stroke="black" stroke-width="2"/>
<rect width="4.27973" height="16.8022" rx="2.13986" transform="matrix(0.89413 -0.447807 0.39825 0.917277 47.3889 46.6601)" fill="black"/>
<path d="M4.14708 68L7.91118 15H69.9682L73.7323 68H4.14708Z" stroke="black" stroke-width="4"/>
</g>
<defs>
<clipPath id="clip0_8_369">
<rect width="78" height="75" fill="white"/>
</clipPath>
</defs>
</svg>
