<svg width="75" height="75" viewBox="0 0 75 75" fill="none" xmlns="http://www.w3.org/2000/svg">
<path d="M72.633 73H3V38.4425V2" stroke="black" stroke-width="4"/>
<path d="M18.8889 17.3421H25.5V17.3617V17.3846V17.4079V17.4317V17.4559V17.4807V17.5058V17.5315V17.5576V17.5842V17.6112V17.6387V17.6666V17.695V17.7238V17.7531V17.7829V17.813V17.8437V17.8748V17.9063V17.9382V17.9707V18.0035V18.0368V18.0705V18.1047V18.1393V18.1743V18.2097V18.2456V18.2819V18.3187V18.3558V18.3934V18.4314V18.4698V18.5087V18.548V18.5876V18.6277V18.6683V18.7092V18.7505V18.7923V18.8344V18.877V18.9199V18.9633V19.0071V19.0513V19.0958V19.1408V19.1862V19.2319V19.2781V19.3246V19.3716V19.4189V19.4666V19.5147V19.5632V19.6121V19.6614V19.711V19.761V19.8114V19.8622V19.9134V19.9649V20.0168V20.0691V20.1217V20.1747V20.2281V20.2818V20.3359V20.3904V20.4452V20.5004V20.556V20.6119V20.6681V20.7247V20.7817V20.839V20.8967V20.9547V21.0131V21.0718V21.1308V21.1902V21.25V21.3101V21.3705V21.4312V21.4923V21.5538V21.6155V21.6776V21.74V21.8028V21.8658V21.9293V21.993V22.057V22.1214V22.1861V22.2511V22.3164V22.3821V22.448V22.5143V22.5809V22.6478V22.715V22.7825V22.8503V22.9184V22.9869V23.0556V23.1246V23.1939V23.2636V23.3335V23.4037V23.4742V23.545V23.6161V23.6875V23.7591V23.8311V23.9033V23.9758V24.0486V24.1217V24.1951V24.2687V24.3426V24.4168V24.4913V24.566V24.641V24.7163V24.7919V24.8677V24.9437V25.0201V25.0967V25.1735V25.2507V25.328V25.4057V25.4836V25.5617V25.6401V25.7187V25.7976V25.8768V25.9562V26.0358V26.1157V26.1958V26.2762V26.3568V26.4376V26.5187V26.6V26.6815V26.7633V26.8453V26.9275V27.01V27.0927V27.1756V27.2587V27.3421V27.4257V27.5095V27.5935V27.6777V27.7622V27.8469V27.9317V28.0168V28.1021V28.1876V28.2733V28.3593V28.4454V28.5317V28.6182V28.705V28.7919V28.879V28.9663V29.0538V29.1415V29.2294V29.3175V29.4058V29.4942V29.5829V29.6717V29.7607V29.8499V29.9393V30.0288V30.1186V30.2085V30.2985V30.3888V30.4792V30.5698V30.6605V30.7515V30.8426V30.9338V31.0252V31.1168V31.2086V31.3005V31.3925V31.4847V31.5771V31.6696V31.7623V31.8551V31.948V32.0412V32.1344V32.2278V32.3214V32.4151V32.5089V32.6029V32.697V32.7912V32.8856V32.9801V33.0747V33.1695V33.2644V33.3594V33.4546V33.5498V33.6452V33.7408V33.8364V33.9321V34.028V34.124V34.2201V34.3163V34.4127V34.5091V34.6057V34.7023V34.7991V34.896V34.9929V35.09V35.1872V35.2844V35.3818V35.4793V35.5768V35.6745V35.7722V35.8701V35.968V36.066V36.1641V36.2623V36.3605V36.4589V36.5573V36.6558V36.7544V36.8531V36.9518V37.0506V37.1495V37.2484V37.3475V37.4466V37.5457V37.6449V37.7442V37.8436V37.943V38.0424V38.1419V38.2415V38.3412V38.4408V38.5406V38.6404V38.7402V38.8401V38.94V39.04V39.14V39.2401V39.3402V39.4403V39.5405V39.6407V39.741V39.8413V39.9416V40.0419V40.1423V40.2427V40.3432V40.4436V40.5441V40.6446V40.7451V40.8457V40.9462V41.0468V41.1474V41.248V41.3486V41.4493V41.5499V41.6505V41.7512V41.8519V41.9525V42.0532V42.1539V42.2545V42.3552V42.4558V42.5565V42.6572V42.7578V42.8584V42.9591V43.0597V43.1603V43.2608V43.3614V43.462V43.5625V43.663V43.7635V43.864V43.9644V44.0648V44.1652V44.2656V44.3659V44.4662V44.5665V44.6667V44.7669V44.867V44.9672V45.0672V45.1673V45.2673V45.3672V45.4671V45.567V45.6668V45.7665V45.8662V45.9659V46.0655V46.165V46.2645V46.3639V46.4633V46.5626V46.6619V46.761V46.8601V46.9592V47.0582V47.1571V47.2559V47.3547V47.4534V47.552V47.6505V47.749V47.8473V47.9456V48.0438V48.142V48.24V48.338V48.4358V48.5336V48.6313V48.7289V48.8264V48.9238V49.0211V49.1183V49.2154V49.3124V49.4093V49.5061V49.6028V49.6994V49.7959V49.8923V49.9885V50.0847V50.1807V50.2766V50.3724V50.4681V50.5637V50.6591V50.7544V50.8496V50.9447V51.0396V51.1345V51.2291V51.3237V51.4181V51.5124V51.6066V51.7006V51.7945V51.8882V51.9818V52.0752V52.1686V52.2617V52.3547V52.4476V52.5403V52.6329V52.7253V52.8176V52.9097V53.0017V53.0935V53.1851V53.2766V53.3679V53.459V53.55V53.6408V53.7315V53.822V53.9123V54.0024V54.0924V54.1822V54.2718V54.3612V54.4505V54.5395V54.6284V54.6579H18.8889H18.3889H17.6111H17.1111H10.5V17.3421H17.1111H17.6111H18.3889H18.8889ZM17.6111 55.6579H18.3889V63.5H17.6111V55.6579ZM18.3889 16.3421H17.6111V8.5H18.3889V16.3421Z" fill="#C35112" stroke="#5A5759"/>
<path d="M40.8333 58.5H40.1667V53.1859V52.6859H39.6667H33.5V32.6741H39.6667H40.1667V32.1741V25.5H40.8333V32.1741V32.6741H41.3333H47.5V52.6859H41.3333H40.8333V53.1859V58.5Z" fill="#F68E2A" stroke="#5A5759"/>
<path d="M60.9444 52.5H60.0556V39.1212V38.6212H59.5556H52.5V15.7999H59.5556H60.0556V15.2999V4.5H60.9444V15.2999V15.7999H61.4444H68.5V38.6212H61.4444H60.9444V39.1212V52.5Z" fill="#C35112" stroke="#5A5759"/>
</svg>
