<svg width="75" height="75" viewBox="0 0 75 75" fill="none" xmlns="http://www.w3.org/2000/svg">
<path d="M72.633 73H3V38.4425V2" stroke="black" stroke-width="4"/>
<path d="M17.6111 16.8421V8.5H18.3889V16.8421V17.3421H18.8889H25.5V54.6579H18.8889H18.3889V55.1579V63.5H17.6111V55.1579V54.6579H17.1111H10.5V17.3421H17.1111H17.6111V16.8421Z" fill="#C35112" stroke="#5A5759"/>
<path d="M40.1667 32.1741V25.5H40.8333V32.1741V32.6741H41.3333H47.5V52.6859H41.3333H40.8333V53.1859V58.5H40.1667V53.1859V52.6859H39.6667H33.5V32.6741H39.6667H40.1667V32.1741Z" fill="#F68E2A" stroke="#5A5759"/>
<path d="M60.0556 15.2999V4.5H60.9444V15.2999V15.7999H61.4444H68.5V38.6212H61.4444H60.9444V39.1212V52.5H60.0556V39.1212V38.6212H59.5556H52.5V15.7999H59.5556H60.0556V15.2999Z" fill="#C35112" stroke="#5A5759"/>
</svg>
