<svg width="268" height="255" viewBox="0 0 268 255" fill="none" xmlns="http://www.w3.org/2000/svg">
<g clip-path="url(#clip0_90_3)">
<path d="M38.792 224.29C39.7712 224.29 40.4673 224.405 40.8804 224.634C41.2935 224.848 41.5 225.216 41.5 225.736V230.578C41.5 231.098 41.3317 231.473 40.9951 231.703C40.6738 231.917 40.1383 232.024 39.3887 232.024C38.5778 232.024 38.0194 231.863 37.7134 231.542C36.8107 230.578 35.778 229.897 34.6152 229.5C33.4525 229.086 32.1061 228.88 30.5762 228.88C29.6735 228.88 28.9621 229.041 28.4419 229.362C27.937 229.683 27.6846 230.111 27.6846 230.647C27.6846 231.29 28.2507 231.749 29.3828 232.024C29.9795 232.177 30.9969 232.322 32.4351 232.46C33.8579 232.628 35.036 232.797 35.9692 232.965C36.9178 233.133 37.8128 233.386 38.6543 233.722C39.8783 234.227 40.8345 234.931 41.5229 235.833C42.2114 236.736 42.5557 237.93 42.5557 239.414C42.5557 240.867 42.1961 242.129 41.4771 243.2C40.7733 244.256 39.7329 245.074 38.356 245.656C36.9943 246.222 35.3496 246.505 33.4219 246.505C31.2952 246.505 29.3216 245.962 27.501 244.875V245.059C27.501 245.579 27.2791 245.946 26.8354 246.161C26.3918 246.39 25.6803 246.505 24.7012 246.505C23.722 246.505 23.0259 246.39 22.6128 246.161C22.1997 245.946 21.9932 245.579 21.9932 245.059V239.941C21.9932 239.437 22.1691 239.069 22.521 238.84C22.8882 238.61 23.4466 238.496 24.1963 238.496C25.1296 238.496 25.7645 238.71 26.1011 239.138C26.866 240.102 27.8452 240.806 29.0386 241.25C30.2319 241.693 31.54 241.915 32.9629 241.915C35.4108 241.915 36.6348 241.28 36.6348 240.01C36.6348 239.628 36.4588 239.322 36.1069 239.092C35.7703 238.863 35.2655 238.672 34.5923 238.519C34.2098 238.442 33.3224 238.304 31.9302 238.105C30.3849 237.922 29.0539 237.715 27.937 237.486C26.8354 237.241 25.8333 236.866 24.9307 236.361C22.8193 235.199 21.7637 233.363 21.7637 230.854C21.7637 229.522 22.1232 228.36 22.8423 227.365C23.5614 226.371 24.5482 225.613 25.8027 225.093C27.0726 224.558 28.4954 224.29 30.0713 224.29C32.3815 224.29 34.4316 224.848 36.2217 225.965V225.736C36.2217 225.216 36.4053 224.848 36.7725 224.634C37.1549 224.405 37.8281 224.29 38.792 224.29ZM60.02 224.29C63.3859 224.29 65.8185 225.017 67.3179 226.47C68.8172 227.924 69.5669 230.004 69.5669 232.712V239.345C69.5669 239.957 69.6969 240.439 69.957 240.791C70.2171 241.127 70.592 241.295 71.0815 241.295H71.793C72.1602 241.295 72.4432 241.364 72.6421 241.502C72.841 241.624 72.9863 241.854 73.0781 242.19C73.1852 242.527 73.2388 243.017 73.2388 243.659C73.2388 244.302 73.1852 244.791 73.0781 245.128C72.9863 245.465 72.841 245.694 72.6421 245.816C72.4432 245.939 72.1602 246 71.793 246H69.2227C68.2741 246 67.4326 245.809 66.6982 245.426C65.9792 245.028 65.4284 244.409 65.0459 243.567C63.8372 244.501 62.5597 245.227 61.2134 245.748C59.867 246.252 58.4824 246.505 57.0596 246.505C55.3307 246.505 53.839 246.214 52.5845 245.633C51.3299 245.036 50.366 244.195 49.6929 243.108C49.035 242.007 48.7061 240.714 48.7061 239.23C48.7061 237.088 49.4634 235.428 50.978 234.25C52.4927 233.072 54.6117 232.483 57.335 232.483C59.3698 232.483 61.5347 232.712 63.8296 233.171V232.506C63.8296 231.481 63.5083 230.723 62.8657 230.234C62.2231 229.744 61.091 229.5 59.4692 229.5C58.5666 229.5 57.5568 229.614 56.4399 229.844C55.3384 230.058 54.2445 230.349 53.1582 230.716C52.8981 230.792 52.6763 230.831 52.4927 230.831C52.1102 230.831 51.766 230.693 51.46 230.417C51.1693 230.127 50.9015 229.645 50.6567 228.972C50.4272 228.299 50.3125 227.748 50.3125 227.319C50.3125 226.539 50.6644 226.019 51.3682 225.759C52.7298 225.269 54.1756 224.902 55.7056 224.657C57.2355 224.412 58.6737 224.29 60.02 224.29ZM57.9087 237.21C56.8377 237.21 56.0192 237.402 55.4531 237.784C54.9023 238.167 54.627 238.725 54.627 239.459C54.627 240.179 54.8947 240.729 55.4302 241.112C55.981 241.479 56.7689 241.663 57.7939 241.663C58.8496 241.663 59.89 241.456 60.915 241.043C61.9554 240.615 62.9269 240.033 63.8296 239.299V237.83C61.8101 237.417 59.8364 237.21 57.9087 237.21ZM88.7754 224.29C91.1009 224.29 93.0822 224.795 94.7192 225.805C96.3563 226.799 97.5879 228.191 98.4141 229.981C99.2555 231.756 99.6763 233.791 99.6763 236.086C99.6763 236.606 99.5615 236.973 99.332 237.188C99.1178 237.402 98.7507 237.509 98.2305 237.509H83.4971C83.7878 238.733 84.4074 239.674 85.356 240.332C86.3198 240.974 87.5361 241.295 89.0049 241.295C91.3763 241.295 93.9466 240.875 96.7158 240.033C96.8994 239.972 97.083 239.941 97.2666 239.941C97.6032 239.941 97.8939 240.094 98.1387 240.4C98.3835 240.706 98.6053 241.227 98.8042 241.961C98.9572 242.527 99.0337 243.009 99.0337 243.407C99.0337 243.805 98.9419 244.118 98.7583 244.348C98.59 244.562 98.307 244.738 97.9092 244.875C96.3792 245.38 94.8187 245.778 93.2275 246.069C91.6364 246.36 90.0758 246.505 88.5459 246.505C86.2204 246.505 84.2161 246.031 82.5332 245.082C80.8503 244.133 79.5651 242.825 78.6777 241.158C77.8057 239.475 77.3696 237.555 77.3696 235.397C77.3696 233.256 77.8286 231.343 78.7466 229.66C79.6646 227.977 80.988 226.661 82.7168 225.713C84.4456 224.764 86.4652 224.29 88.7754 224.29ZM88.7754 229.5C85.9756 229.5 84.2467 230.678 83.5889 233.034H93.6865C93.4264 231.917 92.868 231.052 92.0112 230.44C91.1698 229.813 90.0911 229.5 88.7754 229.5ZM117.921 218.759C121.44 218.759 124.102 219.555 125.907 221.146C127.728 222.722 128.638 225.001 128.638 227.985C128.638 230.968 127.728 233.256 125.907 234.847C124.102 236.438 121.44 237.233 117.921 237.233H114.479V241.295H119.458C119.826 241.295 120.109 241.364 120.308 241.502C120.507 241.624 120.652 241.854 120.744 242.19C120.851 242.527 120.904 243.017 120.904 243.659C120.904 244.302 120.851 244.791 120.744 245.128C120.652 245.465 120.507 245.694 120.308 245.816C120.109 245.939 119.826 246 119.458 246H105.368C105 246 104.717 245.939 104.519 245.816C104.32 245.694 104.167 245.465 104.06 245.128C103.968 244.791 103.922 244.302 103.922 243.659C103.922 243.017 103.968 242.527 104.06 242.19C104.167 241.854 104.32 241.624 104.519 241.502C104.717 241.364 105 241.295 105.368 241.295H108.741V223.464H105.368C105 223.464 104.717 223.403 104.519 223.28C104.32 223.158 104.167 222.928 104.06 222.592C103.968 222.255 103.922 221.766 103.922 221.123C103.922 220.48 103.968 219.991 104.06 219.654C104.167 219.318 104.32 219.088 104.519 218.966C104.717 218.828 105 218.759 105.368 218.759H117.921ZM114.479 232.299H117.209C119.03 232.299 120.399 231.947 121.317 231.244C122.251 230.54 122.717 229.454 122.717 227.985C122.717 226.516 122.251 225.438 121.317 224.749C120.399 224.045 119.03 223.693 117.209 223.693H114.479V232.299ZM146.562 224.795C147.082 224.795 147.449 224.91 147.663 225.139C147.893 225.353 148.007 225.721 148.007 226.241V241.295H154.456C154.823 241.295 155.106 241.364 155.305 241.502C155.504 241.624 155.649 241.854 155.741 242.19C155.848 242.527 155.902 243.017 155.902 243.659C155.902 244.302 155.848 244.791 155.741 245.128C155.649 245.465 155.504 245.694 155.305 245.816C155.106 245.939 154.823 246 154.456 246H136.005C135.638 246 135.355 245.939 135.156 245.816C134.957 245.694 134.804 245.465 134.697 245.128C134.605 244.791 134.559 244.302 134.559 243.659C134.559 243.017 134.605 242.527 134.697 242.19C134.804 241.854 134.957 241.624 135.156 241.502C135.355 241.364 135.638 241.295 136.005 241.295H142.27V229.5H137.382C137.015 229.5 136.732 229.438 136.533 229.316C136.334 229.194 136.181 228.964 136.074 228.627C135.982 228.291 135.936 227.801 135.936 227.159C135.936 226.516 135.982 226.027 136.074 225.69C136.181 225.353 136.334 225.124 136.533 225.001C136.732 224.864 137.015 224.795 137.382 224.795H146.562ZM145.07 214.72C146.156 214.72 146.913 214.835 147.342 215.064C147.785 215.279 148.007 215.646 148.007 216.166V219.93C148.007 220.45 147.801 220.825 147.388 221.054C146.99 221.268 146.256 221.375 145.185 221.375C144.114 221.375 143.356 221.268 142.913 221.054C142.484 220.825 142.27 220.45 142.27 219.93V216.166C142.27 215.631 142.469 215.256 142.867 215.042C143.264 214.827 143.999 214.72 145.07 214.72ZM179.7 224.29C180.679 224.29 181.375 224.405 181.789 224.634C182.202 224.848 182.408 225.216 182.408 225.736V230.578C182.408 231.098 182.24 231.473 181.903 231.703C181.582 231.917 181.047 232.024 180.297 232.024C179.486 232.024 178.928 231.863 178.622 231.542C177.719 230.578 176.686 229.897 175.523 229.5C174.361 229.086 173.014 228.88 171.484 228.88C170.582 228.88 169.87 229.041 169.35 229.362C168.845 229.683 168.593 230.111 168.593 230.647C168.593 231.29 169.159 231.749 170.291 232.024C170.888 232.177 171.905 232.322 173.343 232.46C174.766 232.628 175.944 232.797 176.877 232.965C177.826 233.133 178.721 233.386 179.562 233.722C180.786 234.227 181.743 234.931 182.431 235.833C183.12 236.736 183.464 237.93 183.464 239.414C183.464 240.867 183.104 242.129 182.385 243.2C181.681 244.256 180.641 245.074 179.264 245.656C177.903 246.222 176.258 246.505 174.33 246.505C172.203 246.505 170.23 245.962 168.409 244.875V245.059C168.409 245.579 168.187 245.946 167.744 246.161C167.3 246.39 166.589 246.505 165.609 246.505C164.63 246.505 163.934 246.39 163.521 246.161C163.108 245.946 162.901 245.579 162.901 245.059V239.941C162.901 239.437 163.077 239.069 163.429 238.84C163.796 238.61 164.355 238.496 165.104 238.496C166.038 238.496 166.673 238.71 167.009 239.138C167.774 240.102 168.753 240.806 169.947 241.25C171.14 241.693 172.448 241.915 173.871 241.915C176.319 241.915 177.543 241.28 177.543 240.01C177.543 239.628 177.367 239.322 177.015 239.092C176.679 238.863 176.174 238.672 175.5 238.519C175.118 238.442 174.231 238.304 172.838 238.105C171.293 237.922 169.962 237.715 168.845 237.486C167.744 237.241 166.742 236.866 165.839 236.361C163.728 235.199 162.672 233.363 162.672 230.854C162.672 229.522 163.031 228.36 163.75 227.365C164.47 226.371 165.456 225.613 166.711 225.093C167.981 224.558 169.404 224.29 170.979 224.29C173.29 224.29 175.34 224.848 177.13 225.965V225.736C177.13 225.216 177.313 224.848 177.681 224.634C178.063 224.405 178.736 224.29 179.7 224.29ZM200.928 224.29C204.294 224.29 206.727 225.017 208.226 226.47C209.725 227.924 210.475 230.004 210.475 232.712V239.345C210.475 239.957 210.605 240.439 210.865 240.791C211.125 241.127 211.5 241.295 211.99 241.295H212.701C213.068 241.295 213.351 241.364 213.55 241.502C213.749 241.624 213.895 241.854 213.986 242.19C214.093 242.527 214.147 243.017 214.147 243.659C214.147 244.302 214.093 244.791 213.986 245.128C213.895 245.465 213.749 245.694 213.55 245.816C213.351 245.939 213.068 246 212.701 246H210.131C209.182 246 208.341 245.809 207.606 245.426C206.887 245.028 206.337 244.409 205.954 243.567C204.745 244.501 203.468 245.227 202.122 245.748C200.775 246.252 199.391 246.505 197.968 246.505C196.239 246.505 194.747 246.214 193.493 245.633C192.238 245.036 191.274 244.195 190.601 243.108C189.943 242.007 189.614 240.714 189.614 239.23C189.614 237.088 190.372 235.428 191.886 234.25C193.401 233.072 195.52 232.483 198.243 232.483C200.278 232.483 202.443 232.712 204.738 233.171V232.506C204.738 231.481 204.417 230.723 203.774 230.234C203.131 229.744 201.999 229.5 200.377 229.5C199.475 229.5 198.465 229.614 197.348 229.844C196.247 230.058 195.153 230.349 194.066 230.716C193.806 230.792 193.584 230.831 193.401 230.831C193.018 230.831 192.674 230.693 192.368 230.417C192.077 230.127 191.81 229.645 191.565 228.972C191.335 228.299 191.221 227.748 191.221 227.319C191.221 226.539 191.573 226.019 192.276 225.759C193.638 225.269 195.084 224.902 196.614 224.657C198.144 224.412 199.582 224.29 200.928 224.29ZM198.817 237.21C197.746 237.21 196.927 237.402 196.361 237.784C195.811 238.167 195.535 238.725 195.535 239.459C195.535 240.179 195.803 240.729 196.338 241.112C196.889 241.479 197.677 241.663 198.702 241.663C199.758 241.663 200.798 241.456 201.823 241.043C202.864 240.615 203.835 240.033 204.738 239.299V237.83C202.718 237.417 200.745 237.21 198.817 237.21ZM232.644 224.29C234.036 224.29 235.253 224.596 236.293 225.208C237.349 225.82 238.16 226.692 238.726 227.824C239.292 228.941 239.575 230.257 239.575 231.771V241.295H241.342C241.709 241.295 241.992 241.364 242.191 241.502C242.39 241.624 242.535 241.854 242.627 242.19C242.734 242.527 242.788 243.017 242.788 243.659C242.788 244.302 242.734 244.791 242.627 245.128C242.535 245.465 242.39 245.694 242.191 245.816C241.992 245.939 241.709 246 241.342 246H232.759C232.392 246 232.109 245.939 231.91 245.816C231.711 245.694 231.558 245.465 231.451 245.128C231.359 244.791 231.313 244.302 231.313 243.659C231.313 243.017 231.359 242.527 231.451 242.19C231.558 241.854 231.711 241.624 231.91 241.502C232.109 241.364 232.392 241.295 232.759 241.295H233.837V233.125C233.837 231.932 233.631 231.029 233.218 230.417C232.805 229.806 232.116 229.5 231.152 229.5C230.265 229.5 229.424 229.874 228.628 230.624C227.832 231.358 227.19 232.345 226.7 233.584C226.226 234.824 225.989 236.147 225.989 237.555V241.295H227.067C227.435 241.295 227.718 241.364 227.917 241.502C228.115 241.624 228.261 241.854 228.353 242.19C228.46 242.527 228.513 243.017 228.513 243.659C228.513 244.302 228.46 244.791 228.353 245.128C228.261 245.465 228.115 245.694 227.917 245.816C227.718 245.939 227.435 246 227.067 246H218.484C218.117 246 217.834 245.939 217.635 245.816C217.436 245.694 217.283 245.465 217.176 245.128C217.084 244.791 217.039 244.302 217.039 243.659C217.039 243.017 217.084 242.527 217.176 242.19C217.283 241.854 217.436 241.624 217.635 241.502C217.834 241.364 218.117 241.295 218.484 241.295H220.251V229.5H218.025C217.658 229.5 217.375 229.438 217.176 229.316C216.977 229.194 216.824 228.964 216.717 228.627C216.625 228.291 216.58 227.801 216.58 227.159C216.58 226.516 216.625 226.027 216.717 225.69C216.824 225.353 216.977 225.124 217.176 225.001C217.375 224.864 217.658 224.795 218.025 224.795H223.625C224.145 224.795 224.512 224.91 224.727 225.139C224.956 225.353 225.071 225.721 225.071 226.241V229.568C227.09 226.049 229.615 224.29 232.644 224.29Z" fill="#DB7E25"/>
<g filter="url(#filter0_d_90_3)">
<path d="M192.91 77.7383C144.364 -20.9374 44.1537 47.929 53.199 40.1691C97.8221 1.88722 175.481 -3.56943 209.737 69.8921C233.817 121.533 206.064 183.319 150.563 205.516C97.1971 226.859 241.456 176.414 192.91 77.7383Z" fill="#005999"/>
<path d="M21.6372 154.465C-4.58696 98.2268 13.9429 45.6292 65.6434 17.0934C134.665 -17.7484 -20.765 49.6432 38.9355 149.281C98.636 248.919 219.559 140.771 159.401 189.19C105.304 212.401 54.3458 208.316 21.6372 154.465Z" fill="#2BA3E2"/>
</g>
<g filter="url(#filter1_d_90_3)">
<path d="M198.605 182.467C196.343 180.883 195.793 177.765 197.377 175.503L209.151 158.689C210.734 156.427 213.852 155.877 216.114 157.461L261.318 189.113C263.58 190.697 264.13 193.814 262.546 196.077L250.772 212.891C249.188 215.153 246.071 215.703 243.809 214.119L198.605 182.467Z" fill="#626262"/>
</g>
<path d="M62.2603 97.5839C65.2735 98.2481 67.8409 98.8622 70.9122 98.6568C72.1356 104.897 68.8039 109.722 68.8435 115.823C68.881 121.61 74.0223 125.284 74.3102 130.844C74.7238 138.83 68.5607 144.164 66.5862 151.229C71.9909 153.227 75.5671 158.07 80.7908 159.911C85.073 161.419 91.3263 158.814 94.8422 162.333C99.5564 167.05 97.4453 177.209 100.051 182.848C101.488 185.961 105.714 187.647 108.765 188.668C114.332 190.529 125.793 188.603 126.645 181.046C127.052 177.441 123.287 175.312 121.766 172.504C118.769 166.974 120.471 162.354 114.172 158.739C117.298 148.985 109.171 148.168 106.176 140.403C104.719 136.625 106.53 132.307 107.683 128.698C110.221 132.962 113.066 140.756 116.674 143.875C119.569 146.378 123.987 146.411 126.5 149.408C130.971 154.738 130.511 162.448 140.127 161.708C147.376 161.15 148.367 155.008 152.302 150.338C154.461 147.778 157.735 145.494 157.023 141.684C156.027 136.351 143.883 130.498 139.046 129.771L143.372 126.552C138.404 119.94 127.436 115.168 119.579 112.604C122.748 109.317 125.928 106.001 127.973 101.876C129.985 97.8156 130.461 92.7793 133.316 89.1589C135.478 86.4188 139.307 86.027 141.346 83.3001C143.143 80.8978 143.197 76.8998 141.271 74.5357C135.751 67.7626 121.052 74.418 121.742 82.5634C116.856 84.0066 113.964 87.0891 109.748 89.6994C103.296 93.6959 96.5617 95.3539 101.194 104.021L97.9493 105.094C96.0448 98.8711 90.6008 99.7304 84.9715 99.7297C84.2525 93.156 77.8036 86.064 82.6549 79.6435C85.401 76.0092 90.8263 76.1139 94.7048 74.3362C102.37 70.8228 110.394 66.6027 118.497 64.1702C122.545 62.955 126.536 64.6423 130.394 63.4747C142.062 59.9436 153.31 50.3954 149.434 37.4363C148.047 32.7982 139.156 30.3884 134.82 31.4219C131.309 32.2592 129.49 35.7833 126.95 38.0199C122.698 41.7643 117.098 46.3164 112.009 48.8143C106.808 51.3669 102.176 48.873 96.8678 49.5908C93.5469 50.0399 91.2669 52.3614 88.2159 53.4346C84.6598 54.6854 80.9569 53.9353 77.422 55.6557C71.9404 58.3235 73.7313 61.7976 71.7199 66.4277C70.1582 70.0229 66.8004 72.4495 65.2503 76.1418C62.6567 82.319 62.5639 90.9149 62.2603 97.5839Z" fill="#436C00"/>
<path d="M194.241 99.9672C194.182 100.027 194.121 101.158 194.602 100.682C194.661 100.622 194.722 99.4908 194.241 99.9672Z" fill="#1E5943"/>
<path d="M200.69 100.923C200.382 95.1974 199.199 90.1964 196.718 84.8298C186.34 90.057 191.407 97.0657 200.69 100.923Z" fill="#3C6200"/>
<path d="M31.9799 138.256C36.3046 134.054 34.0757 130.706 34.4433 125.382C34.7451 121.01 36.7093 118.076 35.2761 113.58C33.501 108.01 28.9148 100.288 32.3246 94.5119C35.2164 89.6135 46.2889 87.6691 51.4466 85.6845C49.3382 78.4117 31.8875 69.9069 27.523 79.3639C24.8505 85.1546 24.4409 93.358 24.4104 99.6322C24.3454 113.003 25.8158 126.138 31.9799 138.256Z" fill="#436C00"/>
</g>
<defs>
<filter id="filter0_d_90_3" x="5.80316" y="7.80695" width="216.653" height="210.548" filterUnits="userSpaceOnUse" color-interpolation-filters="sRGB">
<feFlood flood-opacity="0" result="BackgroundImageFix"/>
<feColorMatrix in="SourceAlpha" type="matrix" values="0 0 0 0 0 0 0 0 0 0 0 0 0 0 0 0 0 0 127 0" result="hardAlpha"/>
<feOffset dy="4"/>
<feGaussianBlur stdDeviation="2"/>
<feComposite in2="hardAlpha" operator="out"/>
<feColorMatrix type="matrix" values="0 0 0 0 0 0 0 0 0 0 0 0 0 0 0 0 0 0 0.25 0"/>
<feBlend mode="normal" in2="BackgroundImageFix" result="effect1_dropShadow_90_3"/>
<feBlend mode="normal" in="SourceGraphic" in2="effect1_dropShadow_90_3" result="shape"/>
</filter>
<filter id="filter1_d_90_3" x="192.472" y="156.556" width="74.978" height="66.467" filterUnits="userSpaceOnUse" color-interpolation-filters="sRGB">
<feFlood flood-opacity="0" result="BackgroundImageFix"/>
<feColorMatrix in="SourceAlpha" type="matrix" values="0 0 0 0 0 0 0 0 0 0 0 0 0 0 0 0 0 0 127 0" result="hardAlpha"/>
<feOffset dy="4"/>
<feGaussianBlur stdDeviation="2"/>
<feComposite in2="hardAlpha" operator="out"/>
<feColorMatrix type="matrix" values="0 0 0 0 0 0 0 0 0 0 0 0 0 0 0 0 0 0 0.25 0"/>
<feBlend mode="normal" in2="BackgroundImageFix" result="effect1_dropShadow_90_3"/>
<feBlend mode="normal" in="SourceGraphic" in2="effect1_dropShadow_90_3" result="shape"/>
</filter>
<clipPath id="clip0_90_3">
<rect width="268" height="255" fill="white"/>
</clipPath>
</defs>
</svg>
