<svg width="120" height="113" viewBox="0 0 120 113" fill="none" xmlns="http://www.w3.org/2000/svg">
<path d="M113 56C113 84.7013 89.2888 108 60 108C30.7112 108 7 84.7013 7 56C7 27.2987 30.7112 4 60 4C89.2888 4 113 27.2987 113 56Z" fill="#2BA3E2" stroke="black" stroke-width="2"/>
<path d="M29.1429 57.6195L25.7143 55.9389L23.0601 54.6379C22.8698 54.5446 22.9362 54.2583 23.1481 54.2583H25.6824C25.7035 54.2583 25.7245 54.255 25.7446 54.2484L28.0979 53.4794C28.202 53.4454 28.3141 53.5014 28.3493 53.6051L29.1032 55.8223C29.1275 55.8938 29.19 55.9455 29.2648 55.956L35.0895 56.7717C35.1245 56.7766 35.1575 56.7907 35.1852 56.8124L39.352 60.0803C39.4003 60.1183 39.4286 60.1769 39.4284 60.2383C39.4172 62.7047 39.0026 64.3419 41.1429 64.3419C43.6058 64.3419 45.2824 66.3976 45.4195 66.8172C45.4293 66.8472 45.4211 66.8775 45.4067 66.9056L44.6098 68.4681C44.5853 68.5163 44.5812 68.5723 44.5986 68.6234L45.2998 70.6855C45.3529 70.8416 45.205 70.9912 45.0483 70.94L42.8571 70.224L39.4286 68.9737L36.8729 67.7109C36.8624 67.7057 36.8524 67.6996 36.843 67.6927L33.4862 65.2246C33.4489 65.1972 33.4223 65.1577 33.4109 65.1129L32.5714 61.821L31.7365 59.3654C31.7221 59.3231 31.694 59.2868 31.6566 59.2624L29.1429 57.6195Z" fill="#95C843"/>
<path d="M47.2807 68.4983L49.684 67.713C49.7041 67.7064 49.725 67.7031 49.7461 67.7031H52.2663C52.2792 67.7031 52.2921 67.7019 52.3048 67.6994L56.5524 66.8665C56.5651 66.8641 56.5779 66.8628 56.5909 66.8628H60H63.4286H66.3674C66.5466 66.8628 66.6354 67.0802 66.5075 67.2056L65.4925 68.2006C65.3646 68.326 65.4534 68.5434 65.6326 68.5434H69.363C69.4056 68.5434 69.4471 68.557 69.4814 68.5823L72.0491 70.4702C72.2253 70.5997 72.0955 70.8776 71.883 70.8256L69.452 70.2298C69.4365 70.2259 69.4205 70.224 69.4044 70.224H66H64.2857H60.8813C60.8653 70.224 60.8493 70.2259 60.8337 70.2298L57.4762 71.0526C57.4449 71.0603 57.4122 71.0603 57.381 71.0526L54 70.224L51.4968 69.406C51.4527 69.3916 51.4049 69.393 51.3617 69.4099L47.4159 70.9572C47.2847 71.0087 47.1429 70.912 47.1429 70.771V68.6885C47.1429 68.6019 47.1985 68.5252 47.2807 68.4983Z" fill="#95C843"/>
<path d="M43.7779 56.5298L44.543 53.5296C44.5606 53.4605 44.5401 53.3873 44.4892 53.3374L43.7743 52.6365C43.7359 52.5989 43.7143 52.5474 43.7143 52.4937L43.7143 51.1619C43.7143 51.0292 43.8413 50.9332 43.969 50.9696L45.6377 51.4443C45.7107 51.465 45.7892 51.4427 45.8403 51.3865L46.2018 50.9893C46.2532 50.9329 46.2679 50.8521 46.2398 50.7811L45.5551 49.0511C45.4987 48.9085 45.6172 48.758 45.7691 48.7795L48.8571 49.2165H51.2732C51.3646 49.2165 51.4444 49.1545 51.467 49.0659L52.2473 46.0059C52.2699 45.9173 52.3497 45.8553 52.4411 45.8553H54.8108C54.8413 45.8553 54.8714 45.8483 54.8988 45.8349L56.4595 45.0699C56.528 45.0363 56.5714 44.9666 56.5714 44.8903L56.5714 41.8538C56.5714 41.7433 56.661 41.6538 56.7714 41.6538H57.3469C57.3993 41.6538 57.4495 41.6743 57.4869 41.711L58.2624 42.4712C58.2778 42.4864 58.2907 42.5039 58.3006 42.5232L59.0872 44.0656C59.1214 44.1325 59.1902 44.1747 59.2654 44.1747H61.2246C61.4037 44.1747 61.4925 44.3921 61.3646 44.5175L59.1716 46.6675C59.1526 46.686 59.1376 46.7082 59.1273 46.7327L58.4669 48.3009C58.4466 48.3492 58.446 48.4035 58.4653 48.4521L59.2924 50.542L60.5571 52.8665C60.6502 53.0377 60.4684 53.2274 60.2934 53.1417L59.3196 52.6643C59.2215 52.6163 59.103 52.6558 59.0534 52.7531L58.316 54.1989C58.2963 54.2375 58.2648 54.2685 58.226 54.2876C57.6385 54.5765 56.5714 55.127 56.5714 55.9389C56.5714 57.3085 57.0458 59.2053 57.3463 59.9553C57.3878 60.059 57.3464 60.1807 57.2461 60.2298L54.127 61.7587C54.0509 61.7961 53.9595 61.7813 53.899 61.722L53.1659 61.0033C53.1506 60.9883 53.1331 60.9759 53.1139 60.9665L51.4702 60.1608C51.4428 60.1474 51.4127 60.1404 51.3822 60.1404H49.7384C49.7224 60.1404 49.7064 60.1423 49.6908 60.1461L46.4571 60.9387C46.3592 60.9627 46.2587 60.91 46.2227 60.8158L45.7658 59.6205C45.7599 59.605 45.7559 59.5888 45.754 59.5723L45.4492 56.9561C45.4374 56.8552 45.352 56.7792 45.2505 56.7792L43.9717 56.7792C43.8412 56.7792 43.7456 56.6562 43.7779 56.5298Z" fill="#95C843"/>
<path d="M64.2857 51.7374H65.9183C65.9707 51.7374 66.0209 51.7169 66.0583 51.6802L66.6573 51.093L69.0529 50.562C69.1102 50.5493 69.1591 50.512 69.1865 50.4601L70.2294 48.4829C70.2641 48.4173 70.3321 48.3762 70.4063 48.3762H70.8163C70.9657 48.3762 71.0624 48.534 70.9945 48.6671L69.4842 51.6283C69.4501 51.6952 69.3812 51.7374 69.3061 51.7374H67.796C67.7436 51.7374 67.6933 51.7579 67.656 51.7946L66.9155 52.5205C66.8781 52.5572 66.8278 52.5777 66.7755 52.5777H66H65.1429H64.3674C64.315 52.5777 64.2648 52.5982 64.2274 52.6349L63.4886 53.3592C63.4502 53.3968 63.4286 53.4483 63.4286 53.502V54.2583V55.7389C63.4286 55.8494 63.5181 55.9389 63.6286 55.9389H65.0965C65.127 55.9389 65.1571 55.9459 65.1845 55.9593L66.8282 56.765C66.8474 56.7744 66.8649 56.7868 66.8802 56.8018L67.6543 57.5607C67.6927 57.5983 67.7143 57.6498 67.7143 57.7035V59.252C67.7143 59.2836 67.7068 59.3148 67.6924 59.3429L66.9035 60.8898C66.8744 60.9469 66.8744 61.0145 66.9035 61.0716L67.5659 62.3704C67.6338 62.5035 67.5371 62.6613 67.3878 62.6613H66.0817C66.0293 62.6613 65.9791 62.6408 65.9417 62.6041L65.2028 61.8798C65.1645 61.8422 65.1429 61.7907 65.1429 61.737V59.3841C65.1429 59.3304 65.1645 59.2789 65.2028 59.2413L65.8543 58.6026C65.9343 58.5242 65.9343 58.3954 65.8543 58.317L65.2012 57.6767C65.1638 57.64 65.1135 57.6195 65.0612 57.6195H64.4082C64.333 57.6195 64.2642 57.6617 64.2301 57.7286L63.4504 59.2573C63.4361 59.2854 63.4286 59.3166 63.4286 59.3482V60.9807V62.6132C63.4286 62.6448 63.4211 62.676 63.4067 62.7041L62.6271 64.2328C62.5929 64.2997 62.5241 64.3419 62.4489 64.3419H61.9143C61.8038 64.3419 61.7143 64.2524 61.7143 64.1419V62.6613V61.0647C61.7143 61.011 61.6927 60.9595 61.6543 60.9219L61.0028 60.2832C60.9228 60.2048 60.9228 60.076 61.0028 59.9976L62.4892 58.5404C62.5401 58.4905 62.5606 58.4173 62.543 58.3482L61.7205 55.1229C61.7164 55.1068 61.7143 55.0902 61.7143 55.0735V53.4661C61.7143 53.4345 61.7218 53.4033 61.7361 53.3752L62.5158 51.8465C62.5499 51.7796 62.6188 51.7374 62.6939 51.7374H64.2857Z" fill="#95C843"/>
<path d="M66.8571 50.8971L66.6573 51.093M66.6573 51.093L66.0583 51.6802C66.0209 51.7169 65.9707 51.7374 65.9183 51.7374H64.2857H62.6939C62.6188 51.7374 62.5499 51.7796 62.5158 51.8465L61.7361 53.3752C61.7218 53.4033 61.7143 53.4345 61.7143 53.4661V55.0735C61.7143 55.0902 61.7164 55.1068 61.7205 55.1229L62.543 58.3482C62.5606 58.4173 62.5401 58.4905 62.4892 58.5404L61.0028 59.9976C60.9228 60.076 60.9228 60.2048 61.0028 60.2832L61.6543 60.9219C61.6927 60.9595 61.7143 61.011 61.7143 61.0647V62.6613V64.1419C61.7143 64.2524 61.8038 64.3419 61.9143 64.3419H62.4489C62.5241 64.3419 62.5929 64.2997 62.6271 64.2328L63.4067 62.7041C63.4211 62.676 63.4286 62.6448 63.4286 62.6132V60.9807V59.3482C63.4286 59.3166 63.4361 59.2854 63.4504 59.2573L64.2301 57.7286C64.2642 57.6617 64.333 57.6195 64.4082 57.6195H65.0612C65.1135 57.6195 65.1638 57.64 65.2012 57.6767L65.8543 58.317C65.9343 58.3954 65.9343 58.5242 65.8543 58.6026L65.2028 59.2413C65.1645 59.2789 65.1429 59.3304 65.1429 59.3841V61.737C65.1429 61.7907 65.1645 61.8422 65.2028 61.8798L65.9417 62.6041C65.9791 62.6408 66.0293 62.6613 66.0817 62.6613H67.3878C67.5371 62.6613 67.6338 62.5035 67.5659 62.3704L66.9035 61.0716C66.8744 61.0145 66.8744 60.9469 66.9035 60.8898L67.6924 59.3429C67.7068 59.3148 67.7143 59.2836 67.7143 59.252V57.7035C67.7143 57.6498 67.6927 57.5983 67.6543 57.5607L66.8802 56.8018C66.8649 56.7868 66.8474 56.7744 66.8282 56.765L65.1845 55.9593C65.1571 55.9459 65.127 55.9389 65.0965 55.9389H63.6286C63.5181 55.9389 63.4286 55.8494 63.4286 55.7389V54.2583V53.502C63.4286 53.4483 63.4502 53.3968 63.4886 53.3592L64.2274 52.6349C64.2648 52.5982 64.315 52.5777 64.3674 52.5777H65.1429H66H66.7755C66.8278 52.5777 66.8781 52.5572 66.9155 52.5205L67.656 51.7946C67.6933 51.7579 67.7436 51.7374 67.796 51.7374H69.3061C69.3812 51.7374 69.4501 51.6952 69.4842 51.6283L70.9945 48.6671C71.0624 48.534 70.9657 48.3762 70.8163 48.3762H70.4063C70.3321 48.3762 70.2641 48.4173 70.2294 48.4829L69.1865 50.4601C69.1591 50.512 69.1102 50.5493 69.0529 50.562L66.6573 51.093ZM25.7143 55.9389L29.1429 57.6195L31.6566 59.2624C31.694 59.2868 31.7221 59.3231 31.7365 59.3654L32.5714 61.821L33.4109 65.1129C33.4223 65.1577 33.4489 65.1972 33.4862 65.2246L36.843 67.6927C36.8524 67.6996 36.8624 67.7057 36.8729 67.7109L39.4286 68.9737L42.8571 70.224L45.0483 70.94C45.205 70.9912 45.3529 70.8416 45.2998 70.6855L44.5986 68.6234C44.5812 68.5723 44.5853 68.5163 44.6098 68.4681L45.4067 66.9056C45.4211 66.8775 45.4293 66.8472 45.4195 66.8172C45.2824 66.3976 43.6058 64.3419 41.1429 64.3419C39.0026 64.3419 39.4172 62.7047 39.4284 60.2383C39.4286 60.1769 39.4003 60.1183 39.352 60.0803L35.1852 56.8124C35.1575 56.7907 35.1245 56.7766 35.0895 56.7717L29.2648 55.956C29.19 55.9455 29.1275 55.8938 29.1032 55.8223L28.3493 53.6051C28.3141 53.5014 28.202 53.4454 28.0979 53.4794L25.7446 54.2484C25.7245 54.255 25.7035 54.2583 25.6824 54.2583H23.1481C22.9362 54.2583 22.8698 54.5446 23.0601 54.6379L25.7143 55.9389ZM64.2857 70.224H66H69.4044C69.4205 70.224 69.4365 70.2259 69.452 70.2298L71.883 70.8256C72.0955 70.8776 72.2253 70.5997 72.0491 70.4702L69.4814 68.5823C69.4471 68.557 69.4056 68.5434 69.363 68.5434H65.6326C65.4534 68.5434 65.3646 68.326 65.4926 68.2006L66.5075 67.2056C66.6354 67.0802 66.5466 66.8628 66.3674 66.8628H63.4286H60H56.5909C56.5779 66.8628 56.5651 66.8641 56.5524 66.8665L52.3048 67.6994C52.2921 67.7019 52.2792 67.7031 52.2663 67.7031H49.7461C49.725 67.7031 49.7041 67.7064 49.684 67.713L47.2807 68.4983C47.1985 68.5252 47.1429 68.6019 47.1429 68.6885V70.771C47.1429 70.912 47.2847 71.0087 47.4159 70.9572L51.3617 69.4099C51.4049 69.393 51.4527 69.3916 51.4968 69.406L54 70.224L57.381 71.0526C57.4122 71.0603 57.4449 71.0603 57.4762 71.0526L60.8337 70.2298C60.8493 70.2259 60.8653 70.224 60.8813 70.224H64.2857ZM56.5714 55.9389C56.5714 57.3085 57.0458 59.2053 57.3463 59.9553C57.3878 60.059 57.3464 60.1807 57.2461 60.2298L54.127 61.7587C54.0509 61.7961 53.9595 61.7813 53.899 61.722L53.1659 61.0033C53.1506 60.9883 53.1331 60.9759 53.1139 60.9665L51.4702 60.1608C51.4428 60.1474 51.4127 60.1404 51.3822 60.1404H49.7384C49.7224 60.1404 49.7064 60.1423 49.6908 60.1461L46.4571 60.9387C46.3592 60.9627 46.2587 60.91 46.2227 60.8158L45.7658 59.6205C45.7599 59.605 45.7559 59.5888 45.754 59.5723L45.4492 56.9561C45.4374 56.8552 45.352 56.7792 45.2505 56.7792L43.9717 56.7792C43.8412 56.7792 43.7456 56.6562 43.7779 56.5298L44.543 53.5296C44.5606 53.4605 44.5401 53.3873 44.4892 53.3374L43.7743 52.6365C43.7359 52.5989 43.7143 52.5474 43.7143 52.4937L43.7143 51.1619C43.7143 51.0292 43.8413 50.9332 43.969 50.9696L45.6377 51.4443C45.7107 51.465 45.7892 51.4427 45.8403 51.3865L46.2018 50.9893C46.2532 50.9329 46.2679 50.8521 46.2398 50.7811L45.5551 49.0511C45.4987 48.9085 45.6172 48.758 45.7691 48.7795L48.8571 49.2165H51.2732C51.3646 49.2165 51.4444 49.1545 51.467 49.0659L52.2473 46.0059C52.2699 45.9173 52.3497 45.8553 52.4411 45.8553H54.8108C54.8413 45.8553 54.8714 45.8483 54.8988 45.8349L56.4595 45.0699C56.528 45.0363 56.5714 44.9666 56.5714 44.8903L56.5714 41.8538C56.5714 41.7433 56.661 41.6538 56.7714 41.6538H57.3469C57.3992 41.6538 57.4495 41.6743 57.4869 41.711L58.2624 42.4712C58.2778 42.4864 58.2907 42.5039 58.3006 42.5232L59.0872 44.0656C59.1214 44.1325 59.1902 44.1747 59.2654 44.1747H61.2246C61.4037 44.1747 61.4925 44.3921 61.3646 44.5175L59.1716 46.6675C59.1526 46.686 59.1376 46.7082 59.1273 46.7327L58.4669 48.3009C58.4466 48.3492 58.446 48.4035 58.4653 48.4521L59.2924 50.542L60.5571 52.8665C60.6502 53.0377 60.4684 53.2274 60.2934 53.1417L59.3196 52.6643C59.2215 52.6163 59.103 52.6558 59.0534 52.7531L58.316 54.1989C58.2963 54.2375 58.2648 54.2685 58.226 54.2876C57.6385 54.5765 56.5714 55.127 56.5714 55.9389Z" stroke="black" stroke-width="0.3"/>
<path d="M74.5251 66.0225H72H70.7754C70.5963 66.0225 70.5075 66.2399 70.6354 66.3653L71.0845 66.8056C71.1219 66.8423 71.1722 66.8628 71.2245 66.8628H73.7143H77.0965C77.127 66.8628 77.1571 66.8558 77.1845 66.8424L78.8282 66.0367C78.8474 66.0273 78.8649 66.0149 78.8802 65.9999L81.0789 63.8444C81.2068 63.719 81.118 63.5016 80.9389 63.5016H79.7607C79.7302 63.5016 79.7 63.5086 79.6726 63.522L78 64.3419L76.2857 65.1822L74.6131 66.0021C74.5857 66.0155 74.5556 66.0225 74.5251 66.0225Z" fill="#95C843"/>
<path d="M80.619 65.9992L82.2857 65.1822L84.7627 64.2109C84.9868 64.123 85.1466 64.4328 84.9452 64.5645L84 65.1822L82.3147 66.0083C82.2955 66.0177 82.2779 66.0301 82.2627 66.0451L79.7726 68.4862C79.7352 68.5229 79.685 68.5434 79.6326 68.5434H79.235C79.0744 68.5434 78.9793 68.3637 79.0696 68.2309L80.5416 66.0663C80.5612 66.0376 80.5878 66.0145 80.619 65.9992Z" fill="#95C843"/>
<path d="M74.5251 66.0225H72H70.7754C70.5963 66.0225 70.5075 66.2399 70.6354 66.3653L71.0845 66.8056C71.1219 66.8423 71.1722 66.8628 71.2245 66.8628H73.7143H77.0965C77.127 66.8628 77.1571 66.8558 77.1845 66.8424L78.8282 66.0367C78.8474 66.0273 78.8649 66.0149 78.8802 65.9999L81.0789 63.8444C81.2068 63.719 81.118 63.5016 80.9389 63.5016H79.7607C79.7302 63.5016 79.7 63.5086 79.6726 63.522L78 64.3419L76.2857 65.1822L74.6131 66.0021C74.5857 66.0155 74.5556 66.0225 74.5251 66.0225Z" stroke="black" stroke-width="0.3"/>
<path d="M80.619 65.9992L82.2857 65.1822L84.7627 64.2109C84.9868 64.123 85.1466 64.4328 84.9452 64.5645L84 65.1822L82.3147 66.0083C82.2955 66.0177 82.2779 66.0301 82.2627 66.0451L79.7726 68.4862C79.7352 68.5229 79.685 68.5434 79.6326 68.5434H79.235C79.0744 68.5434 78.9793 68.3637 79.0696 68.2309L80.5416 66.0663C80.5612 66.0376 80.5878 66.0145 80.619 65.9992Z" stroke="black" stroke-width="0.3"/>
<path d="M83.3429 47.5359H85.5143C85.6248 47.5359 85.7143 47.6254 85.7143 47.7359L85.7143 50.0237C85.7143 50.0456 85.7179 50.0674 85.7249 50.0881L86.4423 52.1979C86.4954 52.3541 86.7042 52.3824 86.797 52.246L88.2511 50.1077C88.2737 50.0745 88.2857 50.0354 88.2857 49.9952V46.7796C88.2857 46.7259 88.3073 46.6744 88.3457 46.6368L89.9417 45.0722C89.9791 45.0355 90.0293 45.015 90.0817 45.015H92.5473C92.5633 45.015 92.5793 45.0169 92.5949 45.0207L95.9765 45.8496C95.9921 45.8534 96.0081 45.8553 96.0242 45.8553H99.3223C99.3888 45.8553 99.4509 45.8883 99.4881 45.9433L100.795 47.8774L101.949 49.9638C101.981 50.022 101.982 50.0923 101.952 50.1515L101.21 51.6065C101.17 51.6844 101.185 51.779 101.248 51.8402L102.828 53.389C102.847 53.4081 102.862 53.431 102.873 53.4563L104.501 57.4466C104.541 57.5439 104.498 57.6554 104.404 57.7017L103.145 58.3186C103.012 58.3838 102.857 58.287 102.857 58.139V56.0471C102.857 55.9796 102.823 55.9166 102.767 55.8797L100.595 54.4605C100.462 54.3736 100.286 54.469 100.286 54.6279V57.5579C100.286 57.5981 100.274 57.6372 100.251 57.6704L98.631 60.0529C98.5937 60.1076 98.5312 60.1428 98.4669 60.127C98.1659 60.0533 97.7143 59.655 97.7143 58.4598C97.7143 57.1153 96 58.4598 95.1429 59.3001L92.9114 61.4877C92.7849 61.6117 92.5714 61.5221 92.5714 61.3449V59.3482C92.5714 59.3166 92.5789 59.2854 92.5933 59.2573L94.219 56.0698C94.2587 55.9919 94.2432 55.8973 94.1808 55.8361L91.7726 53.4752C91.7352 53.4385 91.685 53.418 91.6326 53.418H89.1429H87.5511C87.4759 53.418 87.4071 53.4602 87.3729 53.5271L86.6609 54.9232C86.6112 55.0205 86.4927 55.06 86.3947 55.012L84.9691 54.3132C84.9006 54.2796 84.8571 54.2099 84.8571 54.1336V51.7855C84.8571 51.7539 84.85 51.7223 84.8339 51.6952C84.5327 51.1878 83.8107 51.3662 83.1429 50.0568C82.5286 48.8525 82.327 49.8057 82.2917 50.6215C82.2858 50.7574 82.1529 50.8535 82.0263 50.804C81.1895 50.477 80.1894 49.8239 81.4286 49.2165C82.5496 48.667 82.9834 48.0801 83.1044 47.7311C83.1406 47.6267 83.2324 47.5359 83.3429 47.5359Z" fill="#95C843" stroke="black" stroke-width="0.3"/>
<path d="M63.4286 102.996L63.4966 107.285C63.4984 107.401 63.6002 107.491 63.7159 107.481C72.5676 106.678 78.6606 105.26 78.9948 104.167C79.0234 104.073 79.0659 103.971 79.1556 103.932L86.9854 100.506C86.9951 100.502 87.0045 100.497 87.0134 100.491L93.9819 96.0116C93.9939 96.0039 94.0051 95.9949 94.0152 95.9848L102.885 87.1146C102.952 87.0478 102.963 86.9433 102.912 86.8641L100.286 82.8285L97.7555 79.5211C97.7288 79.4862 97.7143 79.4435 97.7143 79.3996V76.1061V72.7651C97.7143 72.7517 97.7131 72.739 97.7104 72.7259C97.4203 71.3132 96.5081 67.8591 95.1429 65.1822C93.7746 62.4994 94.5678 67.4003 95.1389 70.2046C95.1416 70.2178 95.1429 70.2308 95.1429 70.2442V74.3672C95.1429 74.4053 95.132 74.4426 95.1115 74.4747L90.9533 80.9971C90.8985 81.083 90.788 81.114 90.6966 81.0692L87.5406 79.5222C87.472 79.4886 87.4286 79.4189 87.4286 79.3426V77.7867C87.4286 77.2265 87.7714 75.4339 89.1429 72.7449C90.8572 69.3837 88.2857 73.5852 85.7143 72.7449C83.7022 72.0874 83.7128 73.52 83.9816 74.3694C83.9933 74.4063 83.9949 74.4455 83.9853 74.4831L83.1429 77.7867L81.5411 81.7124C81.4874 81.8441 81.3174 81.8792 81.2159 81.7797L79.8543 80.4449C79.7765 80.3686 79.6521 80.3686 79.5743 80.4449L78.0142 81.9743C78.0048 81.9835 77.9963 81.9937 77.9888 82.0046L76.3203 84.4582C76.2978 84.4914 76.2857 84.5306 76.2857 84.5707V87.0049C76.2857 87.0216 76.2836 87.0382 76.2795 87.0543L75.5144 90.0547C75.4763 90.2041 75.2907 90.256 75.1806 90.1481L73.9413 88.9332C73.8361 88.8301 73.6594 88.8722 73.612 89.0116L72.8678 91.2002C72.8608 91.2209 72.8572 91.2427 72.8572 91.2646V92.8039C72.8572 92.8714 72.8231 92.9344 72.7666 92.9713L70.3356 94.5601C70.3031 94.5814 70.265 94.5927 70.2262 94.5927H68.6259C68.5902 94.5927 68.5552 94.6022 68.5245 94.6203L64.3498 97.0759C64.3085 97.1002 64.2772 97.1386 64.2618 97.1839L63.4392 99.6032C63.4322 99.6239 63.4286 99.6457 63.4286 99.6676V102.996Z" fill="#95C843" stroke="black" stroke-width="0.3"/>
<path d="M18.3474 31.3675L14.185 33.863C14.1264 33.8981 14.0538 33.9017 13.9947 33.8674C13.42 33.5339 12.5882 32.6482 13.2354 31.3548C14.0909 29.6452 20.0796 21.9516 25.2127 16.8226C29.3065 12.732 33.7405 10.0007 35.463 9.13697C35.4741 9.13143 35.4849 9.12733 35.4968 9.12393L53.4081 4.01049C53.4323 4.00356 53.4577 4.00129 53.4828 4.0038L61.7285 4.82771C61.863 4.84115 61.9457 4.98135 61.8925 5.10556L59.4334 10.8387L57.7421 14.2188C57.7291 14.2447 57.7107 14.2674 57.6881 14.2855L53.4996 17.6336C53.4641 17.662 53.4201 17.6774 53.3747 17.6774H49.2742C49.2074 17.6774 49.1449 17.7108 49.1078 17.7664L47.4898 20.1915C47.4679 20.2244 47.4562 20.263 47.4562 20.3025V23.5542C47.4562 23.6211 47.4227 23.6836 47.3671 23.7207L45.3746 25.0479C45.2162 25.1534 45.0138 24.9988 45.074 24.8181L45.7349 22.8373C45.7417 22.8169 45.7451 22.7955 45.7451 22.774V21.241C45.7451 21.1549 45.69 21.0784 45.6083 21.0512L43.2958 20.281C43.2239 20.257 43.1448 20.2757 43.0912 20.3292L40.6707 22.7479C40.6331 22.7854 40.612 22.8363 40.612 22.8893V25.3043C40.612 25.3476 40.6251 25.3885 40.6512 25.4231C41.5338 26.5939 43.7225 29.3338 45.7451 31.3548C47.7984 33.4065 46.0303 35.629 44.8896 36.4839L39.055 40.6481C38.9686 40.7098 38.8491 40.6932 38.7827 40.6103L35.4789 36.4839L32.9582 33.1256C32.9287 33.0863 32.8857 33.0592 32.8374 33.0495L28.6868 32.2201C28.6527 32.2133 28.6174 32.2155 28.5844 32.2265L26.205 33.019C26.1233 33.0462 26.0682 33.1226 26.0682 33.2087V38.1611C26.0682 38.1826 26.0717 38.204 26.0785 38.2244L26.9057 40.7041C26.9175 40.7394 26.9389 40.7707 26.9674 40.7945L31.9653 44.9561C32.0217 45.003 32.0478 45.0771 32.0334 45.149L31.2138 49.2441C31.2057 49.2847 31.2103 49.3268 31.2272 49.3646L34.0868 55.7938C34.18 56.0033 33.9047 56.1793 33.7536 56.0068L28.6347 50.1613L26.9823 48.5102C26.9448 48.4727 26.9237 48.4218 26.9237 48.3687V43.8771C26.9237 43.8084 26.8884 43.7445 26.8302 43.7079L23.6551 41.7095C23.568 41.6547 23.5367 41.5428 23.5828 41.4507L24.3473 39.9229C24.3538 39.9098 24.3587 39.8971 24.3621 39.8829C24.6329 38.7187 23.8318 34.9291 21.7906 32.2097C21.5339 31.8677 19.2556 30.5187 18.3863 31.3375C18.3744 31.3488 18.3614 31.3591 18.3474 31.3675Z" fill="#95C843" stroke="black" stroke-width="0.3"/>
<path d="M113 56C113 84.7013 89.2888 108 60 108C30.7112 108 7 84.7013 7 56C7 27.2987 30.7112 4.00001 60 4.00001C89.2888 4.00001 113 27.2987 113 56Z" stroke="black" stroke-width="2"/>
<path d="M99.32 73.0513C99.32 83.8079 90.3634 92.5347 79.3064 92.5347C68.2494 92.5347 59.2929 83.8079 59.2929 73.0513C59.2929 62.2947 68.2494 53.568 79.3064 53.568C90.3634 53.568 99.32 62.2947 99.32 73.0513Z" stroke="black" stroke-width="0.3"/>
<path d="M97.0796 73.0513C97.0796 82.6031 89.1261 90.3532 79.3064 90.3532C69.4868 90.3532 61.5332 82.6031 61.5332 73.0513C61.5332 63.4995 69.4868 55.7495 79.3064 55.7495C89.1261 55.7495 97.0796 63.4995 97.0796 73.0513Z" fill="#A1D9F3" stroke="black" stroke-width="0.3"/>
<path d="M79.3064 91.5032C89.7321 91.5032 98.2296 83.267 98.2296 73.0513C98.2296 62.8357 89.7321 54.5995 79.3064 54.5995C68.8807 54.5995 60.3832 62.8357 60.3832 73.0513C60.3832 83.267 68.8807 91.5032 79.3064 91.5032Z" stroke="#5A5759" stroke-width="2"/>
<path d="M91.7915 88.4956L93.1678 90.5671L90.2592 92.3932L88.8829 90.3218L91.7915 88.4956Z" fill="black" stroke="black"/>
<path d="M95.5851 89.7682L105.472 104.413C105.704 104.757 105.608 105.215 105.258 105.437L99.442 109.125C99.0922 109.347 98.6208 109.248 98.3889 108.905L88.502 94.2598C88.2702 93.9164 88.3658 93.4582 88.7155 93.2365L94.532 89.548C94.8818 89.3262 95.3532 89.4248 95.5851 89.7682Z" fill="#BFBEBE" stroke="black" stroke-width="0.5"/>
<rect width="1.81451" height="7.88722" transform="matrix(0.558859 0.829604 -0.844705 0.53489 97.8155 93.5205)" fill="#5A5759"/>
<rect x="67.7143" y="63.5016" width="3.42857" height="18.4866" fill="#C35112"/>
<rect x="72.8571" y="71.9046" width="3.42857" height="10.0836" fill="#F68E2A"/>
<rect x="78" y="73.5852" width="3.42857" height="8.403" fill="#F68E2A"/>
<rect x="88.2857" y="70.224" width="3.42857" height="11.7642" fill="#F68E2A"/>
<rect x="83.1429" y="66.8628" width="3.42857" height="15.1254" fill="#C35112"/>
</svg>
