<svg width="75" height="75" viewBox="0 0 75 75" fill="none" xmlns="http://www.w3.org/2000/svg">
<rect x="18.4464" y="4.5" width="41.375" height="40.5849" rx="20.2925" fill="#F1CDAA" fill-opacity="0.9" stroke="black" stroke-width="3"/>
<path d="M24.7925 26.9151H25.5825C36.7898 26.9151 45.875 36.0003 45.875 47.2075C45.875 58.4148 36.7898 67.5 25.5825 67.5H24.7925C13.5852 67.5 4.5 58.4148 4.5 47.2075C4.5 36.0003 13.5852 26.9151 24.7925 26.9151Z" fill="#F68E2A" fill-opacity="0.7" stroke="black" stroke-width="3"/>
<path d="M51.4175 25.6698H52.2075C63.4148 25.6698 72.5 34.7551 72.5 45.9623C72.5 57.1695 63.4148 66.2547 52.2075 66.2547H51.4175C40.2102 66.2547 31.125 57.1695 31.125 45.9623C31.125 34.7551 40.2102 25.6698 51.4175 25.6698Z" fill="#C35112" fill-opacity="0.75" stroke="black" stroke-width="3"/>
<path d="M38.7389 4.5H39.529C50.7362 4.5 59.8214 13.5852 59.8214 24.7925C59.8214 35.9997 50.7362 45.0849 39.529 45.0849H38.7389C27.5317 45.0849 18.4464 35.9997 18.4464 24.7925C18.4464 13.5852 27.5317 4.5 38.7389 4.5Z" stroke="black" stroke-width="3"/>
<path d="M24.7925 26.9151H25.5825C36.7898 26.9151 45.875 36.0003 45.875 47.2075C45.875 58.4148 36.7898 67.5 25.5825 67.5H24.7925C13.5852 67.5 4.5 58.4148 4.5 47.2075C4.5 36.0003 13.5852 26.9151 24.7925 26.9151Z" stroke="black" stroke-width="3"/>
</svg>
