<svg width="75" height="75" viewBox="0 0 75 75" fill="none" xmlns="http://www.w3.org/2000/svg">
<path d="M71 72H4V38.9027V4" stroke="black" stroke-width="5"/>
<path d="M35 22H41V68H35V22Z" fill="#C35112"/>
<rect x="19" y="53" width="6" height="15" fill="#F68E2A"/>
<rect x="51" y="53" width="6" height="15" fill="#F68E2A"/>
<rect x="27" y="37" width="6" height="31" fill="#C35112"/>
<rect x="43" y="37" width="6" height="31" fill="#C35112"/>
<path d="M70 65H68.6815C66.5038 65 64.4674 63.9215 63.2438 62.1201V62.1201C62.949 61.686 62.7095 61.224 62.5239 60.7333C61.3395 57.6011 56.5691 45.1239 52.6 36.7333C50.3154 31.9038 48.8846 29.1962 46.6 24.3667C45.6471 22.3522 44.1962 20.0102 43.7414 19.2892C43.6471 19.1396 43.5463 18.9963 43.4389 18.8558V18.8558C40.8 15.4024 35.6 15.4024 32.9611 18.8558L32.8 19.0667L29.5126 24.3667L23.8 36.7333L13 61.4667V61.4667C12.2826 63.5791 10.2994 65 8.06845 65H7" stroke="#5A5759" stroke-width="3"/>
</svg>
