<svg width="75" height="75" viewBox="0 0 75 75" fill="none" xmlns="http://www.w3.org/2000/svg">
<path d="M46 20C46 29.7531 36.1354 38 23.5 38C10.8646 38 1 29.7531 1 20C1 10.2469 10.8646 2 23.5 2C36.1354 2 46 10.2469 46 20Z" fill="#F68E2A" stroke="black" stroke-width="2"/>
<path d="M73 55C73 64.736 62.933 73 50 73C37.067 73 27 64.736 27 55C27 45.264 37.067 37 50 37C62.933 37 73 45.264 73 55Z" fill="#C35112" stroke="black" stroke-width="2"/>
<path d="M17.1832 27H14.6903L21.9006 7.36364H24.3551L31.5653 27H29.0724L23.2045 10.4702H23.0511L17.1832 27ZM18.1037 19.3295H28.152V21.4389H18.1037V19.3295Z" fill="black"/>
<path d="M45.3778 66V46.3636H52.2429C53.6108 46.3636 54.739 46.6001 55.6275 47.0732C56.516 47.5398 57.1776 48.1694 57.6122 48.962C58.0469 49.7482 58.2642 50.6207 58.2642 51.5795C58.2642 52.4233 58.114 53.12 57.8136 53.6697C57.5195 54.2195 57.1296 54.6541 56.6438 54.9737C56.1644 55.2933 55.6435 55.5298 55.081 55.6832V55.875C55.6818 55.9134 56.2859 56.1243 56.8931 56.5078C57.5004 56.8913 58.0085 57.4411 58.4176 58.157C58.8267 58.8729 59.0312 59.7486 59.0312 60.7841C59.0312 61.7685 58.8075 62.6538 58.3601 63.44C57.9126 64.2262 57.2063 64.8494 56.2411 65.3097C55.2759 65.7699 54.0199 66 52.473 66H45.3778ZM47.7557 63.8906H52.473C54.0263 63.8906 55.1289 63.5902 55.7809 62.9893C56.4393 62.3821 56.7685 61.647 56.7685 60.7841C56.7685 60.1193 56.5991 59.5057 56.2603 58.9432C55.9215 58.3743 55.4389 57.9205 54.8125 57.5817C54.1861 57.2365 53.4446 57.0639 52.5881 57.0639H47.7557V63.8906ZM47.7557 54.9929H52.1662C52.8821 54.9929 53.5277 54.8523 54.103 54.571C54.6847 54.2898 55.1449 53.8935 55.4837 53.3821C55.8288 52.8707 56.0014 52.2699 56.0014 51.5795C56.0014 50.7166 55.701 49.9847 55.1001 49.3839C54.4993 48.7766 53.5469 48.473 52.2429 48.473H47.7557V54.9929Z" fill="black"/>
<path d="M29.3029 28.8442L41.0379 45.6035M41.0379 45.6035L28.8958 42.4405M41.0379 45.6035L43.1664 33.4955" stroke="black" stroke-width="4"/>
</svg>
