<svg width="78" height="75" viewBox="0 0 78 75" fill="none" xmlns="http://www.w3.org/2000/svg">
<path d="M2.53677 69.5L6.51394 13.5H71.3655L75.3426 69.5H2.53677Z" fill="#D9D9D9" stroke="black"/>
<path d="M37.9015 19.5795L38.1517 19.3447C38.845 18.6939 38.826 17.587 38.1107 16.9604C36.9932 15.9813 37.6856 14.14 39.1715 14.14H71.3252L75.3734 69.43H70.6684C70.1056 69.43 69.5541 69.2717 69.077 68.9731L66.0311 67.067C65.5239 66.7496 65.1232 66.2878 64.8805 65.741L61.2857 57.6424C60.9148 56.8068 60.1832 56.186 59.2984 55.956L55.0034 54.8395C54.4278 54.6899 53.9096 54.3725 53.5147 53.9277L48.1478 47.8823C47.7529 47.4375 47.2347 47.1201 46.6591 46.9705L43.819 46.2322C42.2344 45.8203 41.2727 44.214 41.658 42.6227L41.9632 41.3624C42.2718 40.0877 41.7166 38.7602 40.5923 38.0848L36.3466 35.5342C35.4438 34.9918 34.8915 34.0157 34.8915 32.9625V30.5813C34.8915 29.9007 35.1229 29.2404 35.5477 28.7087L38.2388 25.3405C38.9204 24.4875 38.8321 23.254 38.036 22.5067L37.9015 22.3805C37.0932 21.6218 37.0932 20.3382 37.9015 19.5795Z" fill="#5A5759" fill-opacity="0.75" stroke="black"/>
<path d="M4.80663 62.2106L6.4754 33.4243C6.49173 33.1427 6.5452 32.8644 6.63442 32.5968L6.75175 32.2447C7.18264 30.9521 8.49753 30.1663 9.84158 30.3903C10.2728 30.4621 10.6825 30.6369 11.0323 30.8992C11.9198 31.5648 13.1219 31.6268 14.0732 31.0561L14.2958 30.9225C14.7566 30.646 15.2839 30.5 15.8213 30.5C16.8627 30.5 17.8279 31.0464 18.3637 31.9395L18.6816 32.4693C18.8899 32.8165 19 33.2139 19 33.6189C19 34.4653 19.4782 35.2391 20.2353 35.6176L23 37L24.103 37.4412C25.0076 37.803 25.7631 38.4604 26.2465 39.3064C27.0207 40.6612 27.0029 42.3284 26.2001 43.6665L26 44L25.4372 44.938C24.8603 45.8994 24.8603 47.1006 25.4372 48.062C25.801 48.6683 26.3649 49.1286 27.0317 49.3635L29.2103 50.1312C29.4022 50.1988 29.5823 50.2963 29.7437 50.4201C30.2205 50.7857 30.5 51.3522 30.5 51.953V52.7655C30.5 53.2501 30.4016 53.7297 30.2107 54.1751L29.9256 54.8402C29.3443 56.1966 29.458 57.7633 30.2172 59.0286C30.4037 59.3396 30.6297 59.6297 30.8861 59.8861L31.0916 60.0916C31.9754 60.9754 32.378 62.2318 32.1725 63.4647C32.0596 64.1427 31.7681 64.7783 31.3281 65.3063L30.9992 65.7009C30.0493 66.8409 28.642 67.5 27.1581 67.5H9.79825C6.92307 67.5 4.64023 65.081 4.80663 62.2106Z" fill="#5A5759" fill-opacity="0.75" stroke="black"/>
<path d="M4.14708 68L7.91118 15H69.9682L73.7323 68H4.14708Z" stroke="black" stroke-width="4"/>
<mask id="path-5-outside-1_17_12" maskUnits="userSpaceOnUse" x="12" y="33" width="57" height="15" fill="black">
<rect fill="white" x="12" y="33" width="57" height="15"/>
<path d="M12.692 47V34.76H16.724C18.008 34.76 18.968 35.084 19.604 35.732C20.252 36.38 20.576 37.244 20.576 38.324V39.278C20.576 40.358 20.252 41.228 19.604 41.888C18.968 42.536 18.008 42.86 16.724 42.86H14.852V47H12.692ZM16.724 36.83H14.852V40.79H16.724C17.252 40.79 17.654 40.658 17.93 40.394C18.218 40.13 18.362 39.758 18.362 39.278V38.324C18.362 37.856 18.218 37.49 17.93 37.226C17.654 36.962 17.252 36.83 16.724 36.83ZM25.226 45.38C25.67 45.38 26.036 45.308 26.324 45.164C26.612 45.008 26.756 44.78 26.756 44.48C26.756 44.216 26.66 44.012 26.468 43.868C26.288 43.712 25.958 43.574 25.478 43.454L24.452 43.184C23.66 42.98 23.072 42.638 22.688 42.158C22.316 41.678 22.13 41.108 22.13 40.448C22.13 39.668 22.4 39.014 22.94 38.486C23.48 37.958 24.314 37.694 25.442 37.694C25.898 37.694 26.378 37.748 26.882 37.856C27.386 37.964 27.914 38.138 28.466 38.378L27.872 40.142C27.368 39.902 26.912 39.734 26.504 39.638C26.096 39.542 25.736 39.494 25.424 39.494C24.572 39.494 24.146 39.782 24.146 40.358C24.146 40.586 24.218 40.766 24.362 40.898C24.518 41.03 24.8 41.15 25.208 41.258L26.234 41.528C27.11 41.756 27.746 42.104 28.142 42.572C28.55 43.04 28.754 43.628 28.754 44.336C28.754 45.176 28.466 45.86 27.89 46.388C27.326 46.916 26.432 47.18 25.208 47.18C24.164 47.18 23.066 46.94 21.914 46.46L22.472 44.75C23.036 44.978 23.546 45.14 24.002 45.236C24.458 45.332 24.866 45.38 25.226 45.38ZM37.809 46.478C37.185 46.73 36.597 46.91 36.045 47.018C35.493 47.126 34.971 47.18 34.479 47.18C33.123 47.18 32.097 46.796 31.401 46.028C30.705 45.26 30.357 44.24 30.357 42.968V41.888C30.357 41.036 30.513 40.298 30.825 39.674C31.137 39.05 31.581 38.564 32.157 38.216C32.733 37.868 33.411 37.694 34.191 37.694C34.827 37.694 35.421 37.826 35.973 38.09C36.537 38.342 36.993 38.744 37.341 39.296C37.701 39.836 37.881 40.532 37.881 41.384C37.881 41.636 37.863 41.906 37.827 42.194C37.791 42.47 37.731 42.764 37.647 43.076H32.355C32.379 43.82 32.565 44.378 32.913 44.75C33.261 45.122 33.819 45.308 34.587 45.308C34.995 45.308 35.415 45.26 35.847 45.164C36.291 45.068 36.747 44.924 37.215 44.732L37.809 46.478ZM34.191 39.44C33.639 39.44 33.207 39.62 32.895 39.98C32.595 40.328 32.421 40.832 32.373 41.492H35.829C35.841 41.432 35.847 41.378 35.847 41.33C35.847 41.27 35.847 41.216 35.847 41.168C35.847 40.592 35.685 40.16 35.361 39.872C35.037 39.584 34.647 39.44 34.191 39.44ZM45.7018 47V45.794C45.1498 46.274 44.6338 46.628 44.1538 46.856C43.6738 47.072 43.1878 47.18 42.6958 47.18C41.8798 47.18 41.2498 46.904 40.8058 46.352C40.3618 45.788 40.1398 45.002 40.1398 43.994V37.874H42.2098V43.742C42.2098 44.75 42.5818 45.254 43.3258 45.254C43.6258 45.254 43.9498 45.182 44.2978 45.038C44.6578 44.894 45.0898 44.618 45.5938 44.21V37.874H47.6638V47H45.7018ZM55.8598 47V45.758C55.3078 46.31 54.8278 46.688 54.4198 46.892C54.0238 47.084 53.6098 47.18 53.1778 47.18C52.1938 47.18 51.4258 46.808 50.8738 46.064C50.3338 45.32 50.0638 44.276 50.0638 42.932V41.96C50.0638 40.652 50.3938 39.614 51.0538 38.846C51.7138 38.078 52.6678 37.694 53.9158 37.694C54.2278 37.694 54.5338 37.724 54.8338 37.784C55.1458 37.844 55.4518 37.928 55.7518 38.036V33.68H57.8218V47H55.8598ZM52.1878 42.932C52.1878 43.736 52.3198 44.324 52.5838 44.696C52.8598 45.068 53.2438 45.254 53.7358 45.254C54.0118 45.254 54.3058 45.176 54.6178 45.02C54.9298 44.852 55.3078 44.54 55.7518 44.084V39.908C55.1638 39.668 54.6238 39.548 54.1318 39.548C53.4358 39.548 52.9378 39.764 52.6378 40.196C52.3378 40.628 52.1878 41.216 52.1878 41.96V42.932ZM68.144 41.888V42.968C68.144 44.24 67.796 45.26 67.1 46.028C66.404 46.796 65.42 47.18 64.148 47.18C62.876 47.18 61.892 46.796 61.196 46.028C60.5 45.26 60.152 44.24 60.152 42.968V41.888C60.152 40.616 60.494 39.602 61.178 38.846C61.874 38.078 62.864 37.694 64.148 37.694C65.432 37.694 66.416 38.078 67.1 38.846C67.796 39.602 68.144 40.616 68.144 41.888ZM66.02 41.888C66.02 41.156 65.858 40.586 65.534 40.178C65.21 39.758 64.748 39.548 64.148 39.548C63.548 39.548 63.086 39.758 62.762 40.178C62.438 40.586 62.276 41.156 62.276 41.888V42.968C62.276 43.7 62.438 44.276 62.762 44.696C63.086 45.116 63.548 45.326 64.148 45.326C64.748 45.326 65.21 45.116 65.534 44.696C65.858 44.276 66.02 43.7 66.02 42.968V41.888Z"/>
</mask>
<path d="M12.692 47V34.76H16.724C18.008 34.76 18.968 35.084 19.604 35.732C20.252 36.38 20.576 37.244 20.576 38.324V39.278C20.576 40.358 20.252 41.228 19.604 41.888C18.968 42.536 18.008 42.86 16.724 42.86H14.852V47H12.692ZM16.724 36.83H14.852V40.79H16.724C17.252 40.79 17.654 40.658 17.93 40.394C18.218 40.13 18.362 39.758 18.362 39.278V38.324C18.362 37.856 18.218 37.49 17.93 37.226C17.654 36.962 17.252 36.83 16.724 36.83ZM25.226 45.38C25.67 45.38 26.036 45.308 26.324 45.164C26.612 45.008 26.756 44.78 26.756 44.48C26.756 44.216 26.66 44.012 26.468 43.868C26.288 43.712 25.958 43.574 25.478 43.454L24.452 43.184C23.66 42.98 23.072 42.638 22.688 42.158C22.316 41.678 22.13 41.108 22.13 40.448C22.13 39.668 22.4 39.014 22.94 38.486C23.48 37.958 24.314 37.694 25.442 37.694C25.898 37.694 26.378 37.748 26.882 37.856C27.386 37.964 27.914 38.138 28.466 38.378L27.872 40.142C27.368 39.902 26.912 39.734 26.504 39.638C26.096 39.542 25.736 39.494 25.424 39.494C24.572 39.494 24.146 39.782 24.146 40.358C24.146 40.586 24.218 40.766 24.362 40.898C24.518 41.03 24.8 41.15 25.208 41.258L26.234 41.528C27.11 41.756 27.746 42.104 28.142 42.572C28.55 43.04 28.754 43.628 28.754 44.336C28.754 45.176 28.466 45.86 27.89 46.388C27.326 46.916 26.432 47.18 25.208 47.18C24.164 47.18 23.066 46.94 21.914 46.46L22.472 44.75C23.036 44.978 23.546 45.14 24.002 45.236C24.458 45.332 24.866 45.38 25.226 45.38ZM37.809 46.478C37.185 46.73 36.597 46.91 36.045 47.018C35.493 47.126 34.971 47.18 34.479 47.18C33.123 47.18 32.097 46.796 31.401 46.028C30.705 45.26 30.357 44.24 30.357 42.968V41.888C30.357 41.036 30.513 40.298 30.825 39.674C31.137 39.05 31.581 38.564 32.157 38.216C32.733 37.868 33.411 37.694 34.191 37.694C34.827 37.694 35.421 37.826 35.973 38.09C36.537 38.342 36.993 38.744 37.341 39.296C37.701 39.836 37.881 40.532 37.881 41.384C37.881 41.636 37.863 41.906 37.827 42.194C37.791 42.47 37.731 42.764 37.647 43.076H32.355C32.379 43.82 32.565 44.378 32.913 44.75C33.261 45.122 33.819 45.308 34.587 45.308C34.995 45.308 35.415 45.26 35.847 45.164C36.291 45.068 36.747 44.924 37.215 44.732L37.809 46.478ZM34.191 39.44C33.639 39.44 33.207 39.62 32.895 39.98C32.595 40.328 32.421 40.832 32.373 41.492H35.829C35.841 41.432 35.847 41.378 35.847 41.33C35.847 41.27 35.847 41.216 35.847 41.168C35.847 40.592 35.685 40.16 35.361 39.872C35.037 39.584 34.647 39.44 34.191 39.44ZM45.7018 47V45.794C45.1498 46.274 44.6338 46.628 44.1538 46.856C43.6738 47.072 43.1878 47.18 42.6958 47.18C41.8798 47.18 41.2498 46.904 40.8058 46.352C40.3618 45.788 40.1398 45.002 40.1398 43.994V37.874H42.2098V43.742C42.2098 44.75 42.5818 45.254 43.3258 45.254C43.6258 45.254 43.9498 45.182 44.2978 45.038C44.6578 44.894 45.0898 44.618 45.5938 44.21V37.874H47.6638V47H45.7018ZM55.8598 47V45.758C55.3078 46.31 54.8278 46.688 54.4198 46.892C54.0238 47.084 53.6098 47.18 53.1778 47.18C52.1938 47.18 51.4258 46.808 50.8738 46.064C50.3338 45.32 50.0638 44.276 50.0638 42.932V41.96C50.0638 40.652 50.3938 39.614 51.0538 38.846C51.7138 38.078 52.6678 37.694 53.9158 37.694C54.2278 37.694 54.5338 37.724 54.8338 37.784C55.1458 37.844 55.4518 37.928 55.7518 38.036V33.68H57.8218V47H55.8598ZM52.1878 42.932C52.1878 43.736 52.3198 44.324 52.5838 44.696C52.8598 45.068 53.2438 45.254 53.7358 45.254C54.0118 45.254 54.3058 45.176 54.6178 45.02C54.9298 44.852 55.3078 44.54 55.7518 44.084V39.908C55.1638 39.668 54.6238 39.548 54.1318 39.548C53.4358 39.548 52.9378 39.764 52.6378 40.196C52.3378 40.628 52.1878 41.216 52.1878 41.96V42.932ZM68.144 41.888V42.968C68.144 44.24 67.796 45.26 67.1 46.028C66.404 46.796 65.42 47.18 64.148 47.18C62.876 47.18 61.892 46.796 61.196 46.028C60.5 45.26 60.152 44.24 60.152 42.968V41.888C60.152 40.616 60.494 39.602 61.178 38.846C61.874 38.078 62.864 37.694 64.148 37.694C65.432 37.694 66.416 38.078 67.1 38.846C67.796 39.602 68.144 40.616 68.144 41.888ZM66.02 41.888C66.02 41.156 65.858 40.586 65.534 40.178C65.21 39.758 64.748 39.548 64.148 39.548C63.548 39.548 63.086 39.758 62.762 40.178C62.438 40.586 62.276 41.156 62.276 41.888V42.968C62.276 43.7 62.438 44.276 62.762 44.696C63.086 45.116 63.548 45.326 64.148 45.326C64.748 45.326 65.21 45.116 65.534 44.696C65.858 44.276 66.02 43.7 66.02 42.968V41.888Z" fill="#C35112"/>
<path d="M12.692 47H12.392V47.3H12.692V47ZM12.692 34.76V34.46H12.392V34.76H12.692ZM19.604 35.732L19.3899 35.9421L19.3919 35.9441L19.604 35.732ZM19.604 41.888L19.3899 41.6778L19.3899 41.6779L19.604 41.888ZM14.852 42.86V42.56H14.552V42.86H14.852ZM14.852 47V47.3H15.152V47H14.852ZM14.852 36.83V36.53H14.552V36.83H14.852ZM14.852 40.79H14.552V41.09H14.852V40.79ZM17.93 40.394L17.7272 40.1728L17.7226 40.1772L17.93 40.394ZM17.93 37.226L17.7226 37.4428L17.7273 37.4471L17.93 37.226ZM12.992 47V34.76H12.392V47H12.992ZM12.692 35.06H16.724V34.46H12.692V35.06ZM16.724 35.06C17.9613 35.06 18.8303 35.3719 19.3899 35.9421L19.8181 35.5219C19.1057 34.7961 18.0547 34.46 16.724 34.46V35.06ZM19.3919 35.9441C19.9736 36.5259 20.276 37.3083 20.276 38.324H20.876C20.876 37.1797 20.5304 36.2341 19.8161 35.5199L19.3919 35.9441ZM20.276 38.324V39.278H20.876V38.324H20.276ZM20.276 39.278C20.276 40.2936 19.9737 41.0833 19.3899 41.6778L19.8181 42.0982C20.5303 41.3727 20.876 40.4224 20.876 39.278H20.276ZM19.3899 41.6779C18.8303 42.2481 17.9613 42.56 16.724 42.56V43.16C18.0547 43.16 19.1057 42.8239 19.8181 42.0981L19.3899 41.6779ZM16.724 42.56H14.852V43.16H16.724V42.56ZM14.552 42.86V47H15.152V42.86H14.552ZM14.852 46.7H12.692V47.3H14.852V46.7ZM16.724 36.53H14.852V37.13H16.724V36.53ZM14.552 36.83V40.79H15.152V36.83H14.552ZM14.852 41.09H16.724V40.49H14.852V41.09ZM16.724 41.09C17.2993 41.09 17.7871 40.9458 18.1374 40.6108L17.7226 40.1772C17.5209 40.3702 17.2047 40.49 16.724 40.49V41.09ZM18.1327 40.6151C18.4965 40.2817 18.662 39.8214 18.662 39.278H18.062C18.062 39.6946 17.9395 39.9783 17.7273 40.1729L18.1327 40.6151ZM18.662 39.278V38.324H18.062V39.278H18.662ZM18.662 38.324C18.662 37.79 18.4949 37.3368 18.1327 37.0049L17.7273 37.4471C17.9411 37.6432 18.062 37.922 18.062 38.324H18.662ZM18.1374 37.0092C17.7871 36.6742 17.2993 36.53 16.724 36.53V37.13C17.2047 37.13 17.5209 37.2498 17.7226 37.4428L18.1374 37.0092ZM26.324 45.164L26.4583 45.4325L26.4669 45.4278L26.324 45.164ZM26.468 43.868L26.2716 44.0947L26.2796 44.1016L26.288 44.108L26.468 43.868ZM25.478 43.454L25.4017 43.7441L25.4053 43.745L25.478 43.454ZM24.452 43.184L24.5284 42.8939L24.5269 42.8935L24.452 43.184ZM22.688 42.158L22.4509 42.3418L22.4538 42.3454L22.688 42.158ZM22.94 38.486L22.7303 38.2715L22.7303 38.2715L22.94 38.486ZM28.466 38.378L28.7504 38.4737L28.8383 38.2127L28.5857 38.1029L28.466 38.378ZM27.872 40.142L27.7431 40.4129L28.0484 40.5583L28.1564 40.2377L27.872 40.142ZM26.504 39.638L26.4353 39.93L26.4353 39.93L26.504 39.638ZM24.362 40.898L24.1592 41.1193L24.1683 41.127L24.362 40.898ZM25.208 41.258L25.1313 41.548L25.1317 41.5481L25.208 41.258ZM26.234 41.528L26.1577 41.8181L26.1585 41.8183L26.234 41.528ZM28.142 42.572L27.913 42.7658L27.9159 42.7691L28.142 42.572ZM27.89 46.388L27.6873 46.1668L27.685 46.169L27.89 46.388ZM21.914 46.46L21.6288 46.3669L21.5429 46.6304L21.7987 46.7369L21.914 46.46ZM22.472 44.75L22.5845 44.4719L22.2865 44.3514L22.1868 44.6569L22.472 44.75ZM24.002 45.236L24.0639 44.9424L24.0639 44.9424L24.002 45.236ZM25.226 45.68C25.6999 45.68 26.1158 45.6035 26.4582 45.4323L26.1899 44.8957C25.9563 45.0125 25.6401 45.08 25.226 45.08V45.68ZM26.4669 45.4278C26.6465 45.3305 26.7969 45.2021 26.9017 45.0362C27.0073 44.869 27.056 44.6801 27.056 44.48H26.456C26.456 44.5799 26.4328 44.655 26.3944 44.7158C26.3552 44.7779 26.2896 44.8415 26.1812 44.9002L26.4669 45.4278ZM27.056 44.48C27.056 44.1325 26.9239 43.8349 26.648 43.628L26.288 44.108C26.3962 44.1891 26.456 44.2995 26.456 44.48H27.056ZM26.6645 43.6413C26.4275 43.4359 26.0375 43.2846 25.5508 43.163L25.4053 43.745C25.8786 43.8634 26.1486 43.9881 26.2716 44.0947L26.6645 43.6413ZM25.5544 43.1639L24.5284 42.8939L24.3757 43.4741L25.4017 43.7441L25.5544 43.1639ZM24.5269 42.8935C23.7771 42.7004 23.2542 42.3854 22.9223 41.9706L22.4538 42.3454C22.8899 42.8906 23.543 43.2596 24.3772 43.4745L24.5269 42.8935ZM22.9252 41.9742C22.5975 41.5515 22.43 41.0476 22.43 40.448H21.83C21.83 41.1684 22.0346 41.8045 22.4509 42.3418L22.9252 41.9742ZM22.43 40.448C22.43 39.7458 22.6696 39.17 23.1498 38.7005L22.7303 38.2715C22.1305 38.858 21.83 39.5902 21.83 40.448H22.43ZM23.1498 38.7005C23.6113 38.2492 24.3543 37.994 25.442 37.994V37.394C24.2738 37.394 23.3488 37.6668 22.7303 38.2715L23.1498 38.7005ZM25.442 37.994C25.8744 37.994 26.3332 38.0452 26.8192 38.1493L26.9449 37.5627C26.4229 37.4508 25.9217 37.394 25.442 37.394V37.994ZM26.8192 38.1493C27.3008 38.2525 27.8097 38.4198 28.3464 38.6531L28.5857 38.1029C28.0184 37.8562 27.4713 37.6755 26.9449 37.5627L26.8192 38.1493ZM28.1817 38.2823L27.5877 40.0463L28.1564 40.2377L28.7504 38.4737L28.1817 38.2823ZM28.001 39.8711C27.4837 39.6248 27.0071 39.4482 26.5728 39.346L26.4353 39.93C26.817 40.0198 27.2524 40.1792 27.7431 40.4129L28.001 39.8711ZM26.5728 39.346C26.1494 39.2464 25.7655 39.194 25.424 39.194V39.794C25.7066 39.794 26.0427 39.8376 26.4353 39.93L26.5728 39.346ZM25.424 39.194C24.9736 39.194 24.5831 39.2684 24.2975 39.4615C23.991 39.6687 23.846 39.9844 23.846 40.358H24.446C24.446 40.1556 24.5141 40.0393 24.6336 39.9585C24.774 39.8636 25.0224 39.794 25.424 39.794V39.194ZM23.846 40.358C23.846 40.6547 23.9428 40.9207 24.1593 41.1191L24.5648 40.6769C24.4933 40.6113 24.446 40.5173 24.446 40.358H23.846ZM24.1683 41.127C24.3785 41.3049 24.7166 41.4382 25.1313 41.548L25.2848 40.968C24.8835 40.8618 24.6576 40.7551 24.5558 40.669L24.1683 41.127ZM25.1317 41.5481L26.1577 41.8181L26.3104 41.2379L25.2844 40.9679L25.1317 41.5481ZM26.1585 41.8183C27.0017 42.0378 27.5719 42.3626 27.913 42.7658L28.3711 42.3782C27.9202 41.8454 27.2184 41.4742 26.3096 41.2377L26.1585 41.8183ZM27.9159 42.7691C28.2696 43.1749 28.454 43.6896 28.454 44.336H29.054C29.054 43.5664 28.8305 42.9051 28.3682 42.3749L27.9159 42.7691ZM28.454 44.336C28.454 45.099 28.1963 45.7003 27.6873 46.1669L28.0928 46.6091C28.7358 46.0197 29.054 45.253 29.054 44.336H28.454ZM27.685 46.169C27.2014 46.6218 26.3985 46.88 25.208 46.88V47.48C26.4656 47.48 27.4507 47.2102 28.0951 46.607L27.685 46.169ZM25.208 46.88C24.2106 46.88 23.1519 46.6508 22.0294 46.1831L21.7987 46.7369C22.9802 47.2292 24.1175 47.48 25.208 47.48V46.88ZM22.1992 46.5531L22.7572 44.8431L22.1868 44.6569L21.6288 46.3669L22.1992 46.5531ZM22.3596 45.0281C22.9353 45.2609 23.4626 45.429 23.9402 45.5296L24.0639 44.9424C23.6295 44.851 23.1368 44.6951 22.5845 44.4719L22.3596 45.0281ZM23.9402 45.5296C24.411 45.6287 24.8403 45.68 25.226 45.68V45.08C24.8918 45.08 24.5051 45.0353 24.0639 44.9424L23.9402 45.5296ZM37.809 46.478L37.9214 46.7562L38.1844 46.6499L38.093 46.3814L37.809 46.478ZM36.045 47.018L35.9874 46.7236L36.045 47.018ZM31.401 46.028L31.1787 46.2295L31.1787 46.2295L31.401 46.028ZM30.825 39.674L31.0934 39.8082L31.0934 39.8082L30.825 39.674ZM32.157 38.216L32.0019 37.9592L32.0019 37.9592L32.157 38.216ZM35.973 38.09L35.8436 38.3607L35.8506 38.3639L35.973 38.09ZM37.341 39.296L37.0872 39.456L37.0914 39.4624L37.341 39.296ZM37.827 42.194L38.1245 42.2328L38.1247 42.2312L37.827 42.194ZM37.647 43.076V43.376H37.8769L37.9367 43.154L37.647 43.076ZM32.355 43.076V42.776H32.0452L32.0552 43.0857L32.355 43.076ZM32.913 44.75L32.6939 44.9549L32.6939 44.9549L32.913 44.75ZM35.847 45.164L35.7836 44.8708L35.782 44.8711L35.847 45.164ZM37.215 44.732L37.499 44.6354L37.3963 44.3334L37.1012 44.4544L37.215 44.732ZM32.895 39.98L32.6683 39.7835L32.6678 39.7841L32.895 39.98ZM32.373 41.492L32.0738 41.4702L32.0504 41.792H32.373V41.492ZM35.829 41.492V41.792H36.075L36.1232 41.5508L35.829 41.492ZM35.361 39.872L35.5603 39.6478L35.5603 39.6478L35.361 39.872ZM37.6967 46.1998C37.0871 46.446 36.5175 46.6199 35.9874 46.7236L36.1026 47.3124C36.6766 47.2001 37.283 47.014 37.9214 46.7562L37.6967 46.1998ZM35.9874 46.7236C35.4518 46.8284 34.9492 46.88 34.479 46.88V47.48C34.9929 47.48 35.5343 47.4236 36.1026 47.3124L35.9874 46.7236ZM34.479 46.88C33.1801 46.88 32.2463 46.5139 31.6233 45.8265L31.1787 46.2295C31.9478 47.0781 33.0659 47.48 34.479 47.48V46.88ZM31.6233 45.8265C30.9881 45.1256 30.657 44.1833 30.657 42.968H30.057C30.057 44.2967 30.422 45.3944 31.1787 46.2295L31.6233 45.8265ZM30.657 42.968V41.888H30.057V42.968H30.657ZM30.657 41.888C30.657 41.0724 30.8063 40.3823 31.0934 39.8082L30.5567 39.5398C30.2198 40.2137 30.057 40.9996 30.057 41.888H30.657ZM31.0934 39.8082C31.381 39.233 31.7866 38.7903 32.3122 38.4728L32.0019 37.9592C31.3755 38.3377 30.8931 38.867 30.5567 39.5398L31.0934 39.8082ZM32.3122 38.4728C32.8343 38.1573 33.4569 37.994 34.191 37.994V37.394C33.3652 37.394 32.6317 37.5787 32.0019 37.9592L32.3122 38.4728ZM34.191 37.994C34.7841 37.994 35.3336 38.1167 35.8436 38.3606L36.1025 37.8194C35.5084 37.5353 34.87 37.394 34.191 37.394V37.994ZM35.8506 38.3639C36.3574 38.5903 36.769 38.9511 37.0873 39.456L37.5948 39.136C37.2171 38.5369 36.7166 38.0937 36.0954 37.8161L35.8506 38.3639ZM37.0914 39.4624C37.4097 39.9399 37.581 40.573 37.581 41.384H38.181C38.181 40.491 37.9923 39.7321 37.5906 39.1296L37.0914 39.4624ZM37.581 41.384C37.581 41.6219 37.564 41.8793 37.5293 42.1568L38.1247 42.2312C38.162 41.9327 38.181 41.6501 38.181 41.384H37.581ZM37.5296 42.1552C37.4955 42.4161 37.4384 42.6969 37.3573 42.998L37.9367 43.154C38.0236 42.8311 38.0865 42.5239 38.1245 42.2328L37.5296 42.1552ZM37.647 42.776H32.355V43.376H37.647V42.776ZM32.0552 43.0857C32.0805 43.8695 32.2776 44.5099 32.6939 44.9549L33.1321 44.5451C32.8524 44.2461 32.6776 43.7705 32.6549 43.0663L32.0552 43.0857ZM32.6939 44.9549C33.1221 45.4126 33.778 45.608 34.587 45.608V45.008C33.8601 45.008 33.4 44.8314 33.1321 44.5451L32.6939 44.9549ZM34.587 45.608C35.0187 45.608 35.4605 45.5572 35.9121 45.4569L35.782 44.8711C35.3695 44.9628 34.9714 45.008 34.587 45.008V45.608ZM35.9104 45.4572C36.3735 45.3571 36.8464 45.2075 37.3289 45.0096L37.1012 44.4544C36.6477 44.6405 36.2086 44.7789 35.7836 44.8708L35.9104 45.4572ZM36.931 44.8286L37.525 46.5746L38.093 46.3814L37.499 44.6354L36.931 44.8286ZM34.191 39.14C33.5673 39.14 33.0466 39.347 32.6683 39.7835L33.1217 40.1765C33.3674 39.893 33.7107 39.74 34.191 39.74V39.14ZM32.6678 39.7841C32.3108 40.1982 32.1245 40.7733 32.0738 41.4702L32.6722 41.5138C32.7176 40.8907 32.8792 40.4578 33.1223 40.1759L32.6678 39.7841ZM32.373 41.792H35.829V41.192H32.373V41.792ZM36.1232 41.5508C36.1381 41.4765 36.147 41.4023 36.147 41.33H35.547C35.547 41.3537 35.544 41.3875 35.5349 41.4332L36.1232 41.5508ZM36.147 41.33C36.147 41.3299 36.147 41.3298 36.147 41.3296C36.147 41.3295 36.147 41.3294 36.147 41.3293C36.147 41.3292 36.147 41.3291 36.147 41.3289C36.147 41.3288 36.147 41.3287 36.147 41.3286C36.147 41.3285 36.147 41.3284 36.147 41.3282C36.147 41.3281 36.147 41.328 36.147 41.3279C36.147 41.3278 36.147 41.3277 36.147 41.3275C36.147 41.3274 36.147 41.3273 36.147 41.3272C36.147 41.3271 36.147 41.327 36.147 41.3268C36.147 41.3267 36.147 41.3266 36.147 41.3265C36.147 41.3264 36.147 41.3263 36.147 41.3261C36.147 41.326 36.147 41.3259 36.147 41.3258C36.147 41.3257 36.147 41.3256 36.147 41.3254C36.147 41.3253 36.147 41.3252 36.147 41.3251C36.147 41.325 36.147 41.3249 36.147 41.3247C36.147 41.3246 36.147 41.3245 36.147 41.3244C36.147 41.3243 36.147 41.3242 36.147 41.324C36.147 41.3239 36.147 41.3238 36.147 41.3237C36.147 41.3236 36.147 41.3235 36.147 41.3233C36.147 41.3232 36.147 41.3231 36.147 41.323C36.147 41.3229 36.147 41.3228 36.147 41.3226C36.147 41.3225 36.147 41.3224 36.147 41.3223C36.147 41.3222 36.147 41.3221 36.147 41.3219C36.147 41.3218 36.147 41.3217 36.147 41.3216C36.147 41.3215 36.147 41.3214 36.147 41.3213C36.147 41.3211 36.147 41.321 36.147 41.3209C36.147 41.3208 36.147 41.3207 36.147 41.3206C36.147 41.3204 36.147 41.3203 36.147 41.3202C36.147 41.3201 36.147 41.32 36.147 41.3199C36.147 41.3197 36.147 41.3196 36.147 41.3195C36.147 41.3194 36.147 41.3193 36.147 41.3192C36.147 41.3191 36.147 41.3189 36.147 41.3188C36.147 41.3187 36.147 41.3186 36.147 41.3185C36.147 41.3184 36.147 41.3182 36.147 41.3181C36.147 41.318 36.147 41.3179 36.147 41.3178C36.147 41.3177 36.147 41.3175 36.147 41.3174C36.147 41.3173 36.147 41.3172 36.147 41.3171C36.147 41.317 36.147 41.3169 36.147 41.3167C36.147 41.3166 36.147 41.3165 36.147 41.3164C36.147 41.3163 36.147 41.3162 36.147 41.316C36.147 41.3159 36.147 41.3158 36.147 41.3157C36.147 41.3156 36.147 41.3155 36.147 41.3154C36.147 41.3152 36.147 41.3151 36.147 41.315C36.147 41.3149 36.147 41.3148 36.147 41.3147C36.147 41.3145 36.147 41.3144 36.147 41.3143C36.147 41.3142 36.147 41.3141 36.147 41.314C36.147 41.3139 36.147 41.3137 36.147 41.3136C36.147 41.3135 36.147 41.3134 36.147 41.3133C36.147 41.3132 36.147 41.3131 36.147 41.3129C36.147 41.3128 36.147 41.3127 36.147 41.3126C36.147 41.3125 36.147 41.3124 36.147 41.3122C36.147 41.3121 36.147 41.312 36.147 41.3119C36.147 41.3118 36.147 41.3117 36.147 41.3116C36.147 41.3114 36.147 41.3113 36.147 41.3112C36.147 41.3111 36.147 41.311 36.147 41.3109C36.147 41.3108 36.147 41.3106 36.147 41.3105C36.147 41.3104 36.147 41.3103 36.147 41.3102C36.147 41.3101 36.147 41.31 36.147 41.3098C36.147 41.3097 36.147 41.3096 36.147 41.3095C36.147 41.3094 36.147 41.3093 36.147 41.3092C36.147 41.309 36.147 41.3089 36.147 41.3088C36.147 41.3087 36.147 41.3086 36.147 41.3085C36.147 41.3084 36.147 41.3082 36.147 41.3081C36.147 41.308 36.147 41.3079 36.147 41.3078C36.147 41.3077 36.147 41.3076 36.147 41.3074C36.147 41.3073 36.147 41.3072 36.147 41.3071C36.147 41.307 36.147 41.3069 36.147 41.3068C36.147 41.3066 36.147 41.3065 36.147 41.3064C36.147 41.3063 36.147 41.3062 36.147 41.3061C36.147 41.306 36.147 41.3058 36.147 41.3057C36.147 41.3056 36.147 41.3055 36.147 41.3054C36.147 41.3053 36.147 41.3052 36.147 41.305C36.147 41.3049 36.147 41.3048 36.147 41.3047C36.147 41.3046 36.147 41.3045 36.147 41.3044C36.147 41.3042 36.147 41.3041 36.147 41.304C36.147 41.3039 36.147 41.3038 36.147 41.3037C36.147 41.3036 36.147 41.3035 36.147 41.3033C36.147 41.3032 36.147 41.3031 36.147 41.303C36.147 41.3029 36.147 41.3028 36.147 41.3027C36.147 41.3025 36.147 41.3024 36.147 41.3023C36.147 41.3022 36.147 41.3021 36.147 41.302C36.147 41.3019 36.147 41.3017 36.147 41.3016C36.147 41.3015 36.147 41.3014 36.147 41.3013C36.147 41.3012 36.147 41.3011 36.147 41.301C36.147 41.3008 36.147 41.3007 36.147 41.3006C36.147 41.3005 36.147 41.3004 36.147 41.3003C36.147 41.3002 36.147 41.3 36.147 41.2999C36.147 41.2998 36.147 41.2997 36.147 41.2996C36.147 41.2995 36.147 41.2994 36.147 41.2993C36.147 41.2991 36.147 41.299 36.147 41.2989C36.147 41.2988 36.147 41.2987 36.147 41.2986C36.147 41.2985 36.147 41.2983 36.147 41.2982C36.147 41.2981 36.147 41.298 36.147 41.2979C36.147 41.2978 36.147 41.2977 36.147 41.2976C36.147 41.2974 36.147 41.2973 36.147 41.2972C36.147 41.2971 36.147 41.297 36.147 41.2969C36.147 41.2968 36.147 41.2967 36.147 41.2965C36.147 41.2964 36.147 41.2963 36.147 41.2962C36.147 41.2961 36.147 41.296 36.147 41.2959C36.147 41.2958 36.147 41.2956 36.147 41.2955C36.147 41.2954 36.147 41.2953 36.147 41.2952C36.147 41.2951 36.147 41.295 36.147 41.2949C36.147 41.2947 36.147 41.2946 36.147 41.2945C36.147 41.2944 36.147 41.2943 36.147 41.2942C36.147 41.2941 36.147 41.294 36.147 41.2938C36.147 41.2937 36.147 41.2936 36.147 41.2935C36.147 41.2934 36.147 41.2933 36.147 41.2932C36.147 41.2931 36.147 41.2929 36.147 41.2928C36.147 41.2927 36.147 41.2926 36.147 41.2925C36.147 41.2924 36.147 41.2923 36.147 41.2922C36.147 41.292 36.147 41.2919 36.147 41.2918C36.147 41.2917 36.147 41.2916 36.147 41.2915C36.147 41.2914 36.147 41.2913 36.147 41.2911C36.147 41.291 36.147 41.2909 36.147 41.2908C36.147 41.2907 36.147 41.2906 36.147 41.2905C36.147 41.2904 36.147 41.2903 36.147 41.2901C36.147 41.29 36.147 41.2899 36.147 41.2898C36.147 41.2897 36.147 41.2896 36.147 41.2895C36.147 41.2894 36.147 41.2892 36.147 41.2891C36.147 41.289 36.147 41.2889 36.147 41.2888C36.147 41.2887 36.147 41.2886 36.147 41.2885C36.147 41.2884 36.147 41.2882 36.147 41.2881C36.147 41.288 36.147 41.2879 36.147 41.2878C36.147 41.2877 36.147 41.2876 36.147 41.2875C36.147 41.2874 36.147 41.2872 36.147 41.2871C36.147 41.287 36.147 41.2869 36.147 41.2868C36.147 41.2867 36.147 41.2866 36.147 41.2865C36.147 41.2863 36.147 41.2862 36.147 41.2861C36.147 41.286 36.147 41.2859 36.147 41.2858C36.147 41.2857 36.147 41.2856 36.147 41.2855C36.147 41.2853 36.147 41.2852 36.147 41.2851C36.147 41.285 36.147 41.2849 36.147 41.2848C36.147 41.2847 36.147 41.2846 36.147 41.2845C36.147 41.2843 36.147 41.2842 36.147 41.2841C36.147 41.284 36.147 41.2839 36.147 41.2838C36.147 41.2837 36.147 41.2836 36.147 41.2835C36.147 41.2833 36.147 41.2832 36.147 41.2831C36.147 41.283 36.147 41.2829 36.147 41.2828C36.147 41.2827 36.147 41.2826 36.147 41.2825C36.147 41.2823 36.147 41.2822 36.147 41.2821C36.147 41.282 36.147 41.2819 36.147 41.2818C36.147 41.2817 36.147 41.2816 36.147 41.2815C36.147 41.2814 36.147 41.2812 36.147 41.2811C36.147 41.281 36.147 41.2809 36.147 41.2808C36.147 41.2807 36.147 41.2806 36.147 41.2805C36.147 41.2804 36.147 41.2802 36.147 41.2801C36.147 41.28 36.147 41.2799 36.147 41.2798C36.147 41.2797 36.147 41.2796 36.147 41.2795C36.147 41.2794 36.147 41.2793 36.147 41.2791C36.147 41.279 36.147 41.2789 36.147 41.2788C36.147 41.2787 36.147 41.2786 36.147 41.2785C36.147 41.2784 36.147 41.2783 36.147 41.2781C36.147 41.278 36.147 41.2779 36.147 41.2778C36.147 41.2777 36.147 41.2776 36.147 41.2775C36.147 41.2774 36.147 41.2773 36.147 41.2772C36.147 41.277 36.147 41.2769 36.147 41.2768C36.147 41.2767 36.147 41.2766 36.147 41.2765C36.147 41.2764 36.147 41.2763 36.147 41.2762C36.147 41.2761 36.147 41.2759 36.147 41.2758C36.147 41.2757 36.147 41.2756 36.147 41.2755C36.147 41.2754 36.147 41.2753 36.147 41.2752C36.147 41.2751 36.147 41.275 36.147 41.2748C36.147 41.2747 36.147 41.2746 36.147 41.2745C36.147 41.2744 36.147 41.2743 36.147 41.2742C36.147 41.2741 36.147 41.274 36.147 41.2739C36.147 41.2738 36.147 41.2736 36.147 41.2735C36.147 41.2734 36.147 41.2733 36.147 41.2732C36.147 41.2731 36.147 41.273 36.147 41.2729C36.147 41.2728 36.147 41.2727 36.147 41.2725C36.147 41.2724 36.147 41.2723 36.147 41.2722C36.147 41.2721 36.147 41.272 36.147 41.2719C36.147 41.2718 36.147 41.2717 36.147 41.2716C36.147 41.2715 36.147 41.2713 36.147 41.2712C36.147 41.2711 36.147 41.271 36.147 41.2709C36.147 41.2708 36.147 41.2707 36.147 41.2706C36.147 41.2705 36.147 41.2704 36.147 41.2703C36.147 41.2701 36.147 41.27 36.147 41.2699C36.147 41.2698 36.147 41.2697 36.147 41.2696C36.147 41.2695 36.147 41.2694 36.147 41.2693C36.147 41.2692 36.147 41.2691 36.147 41.2689C36.147 41.2688 36.147 41.2687 36.147 41.2686C36.147 41.2685 36.147 41.2684 36.147 41.2683C36.147 41.2682 36.147 41.2681 36.147 41.268C36.147 41.2679 36.147 41.2677 36.147 41.2676C36.147 41.2675 36.147 41.2674 36.147 41.2673C36.147 41.2672 36.147 41.2671 36.147 41.267C36.147 41.2669 36.147 41.2668 36.147 41.2667C36.147 41.2665 36.147 41.2664 36.147 41.2663C36.147 41.2662 36.147 41.2661 36.147 41.266C36.147 41.2659 36.147 41.2658 36.147 41.2657C36.147 41.2656 36.147 41.2655 36.147 41.2654C36.147 41.2652 36.147 41.2651 36.147 41.265C36.147 41.2649 36.147 41.2648 36.147 41.2647C36.147 41.2646 36.147 41.2645 36.147 41.2644C36.147 41.2643 36.147 41.2642 36.147 41.2641C36.147 41.2639 36.147 41.2638 36.147 41.2637C36.147 41.2636 36.147 41.2635 36.147 41.2634C36.147 41.2633 36.147 41.2632 36.147 41.2631C36.147 41.263 36.147 41.2629 36.147 41.2628C36.147 41.2626 36.147 41.2625 36.147 41.2624C36.147 41.2623 36.147 41.2622 36.147 41.2621C36.147 41.262 36.147 41.2619 36.147 41.2618C36.147 41.2617 36.147 41.2616 36.147 41.2615C36.147 41.2614 36.147 41.2612 36.147 41.2611C36.147 41.261 36.147 41.2609 36.147 41.2608C36.147 41.2607 36.147 41.2606 36.147 41.2605C36.147 41.2604 36.147 41.2603 36.147 41.2602C36.147 41.2601 36.147 41.26 36.147 41.2598C36.147 41.2597 36.147 41.2596 36.147 41.2595C36.147 41.2594 36.147 41.2593 36.147 41.2592C36.147 41.2591 36.147 41.259 36.147 41.2589C36.147 41.2588 36.147 41.2587 36.147 41.2586C36.147 41.2584 36.147 41.2583 36.147 41.2582C36.147 41.2581 36.147 41.258 36.147 41.2579C36.147 41.2578 36.147 41.2577 36.147 41.2576C36.147 41.2575 36.147 41.2574 36.147 41.2573C36.147 41.2572 36.147 41.2571 36.147 41.2569C36.147 41.2568 36.147 41.2567 36.147 41.2566C36.147 41.2565 36.147 41.2564 36.147 41.2563C36.147 41.2562 36.147 41.2561 36.147 41.256C36.147 41.2559 36.147 41.2558 36.147 41.2557C36.147 41.2556 36.147 41.2554 36.147 41.2553C36.147 41.2552 36.147 41.2551 36.147 41.255C36.147 41.2549 36.147 41.2548 36.147 41.2547C36.147 41.2546 36.147 41.2545 36.147 41.2544C36.147 41.2543 36.147 41.2542 36.147 41.2541C36.147 41.2539 36.147 41.2538 36.147 41.2537C36.147 41.2536 36.147 41.2535 36.147 41.2534C36.147 41.2533 36.147 41.2532 36.147 41.2531C36.147 41.253 36.147 41.2529 36.147 41.2528C36.147 41.2527 36.147 41.2526 36.147 41.2525C36.147 41.2523 36.147 41.2522 36.147 41.2521C36.147 41.252 36.147 41.2519 36.147 41.2518C36.147 41.2517 36.147 41.2516 36.147 41.2515C36.147 41.2514 36.147 41.2513 36.147 41.2512C36.147 41.2511 36.147 41.251 36.147 41.2509C36.147 41.2507 36.147 41.2506 36.147 41.2505C36.147 41.2504 36.147 41.2503 36.147 41.2502C36.147 41.2501 36.147 41.25 36.147 41.2499C36.147 41.2498 36.147 41.2497 36.147 41.2496C36.147 41.2495 36.147 41.2494 36.147 41.2493C36.147 41.2492 36.147 41.249 36.147 41.2489C36.147 41.2488 36.147 41.2487 36.147 41.2486C36.147 41.2485 36.147 41.2484 36.147 41.2483C36.147 41.2482 36.147 41.2481 36.147 41.248C36.147 41.2479 36.147 41.2478 36.147 41.2477C36.147 41.2476 36.147 41.2475 36.147 41.2474C36.147 41.2472 36.147 41.2471 36.147 41.247C36.147 41.2469 36.147 41.2468 36.147 41.2467C36.147 41.2466 36.147 41.2465 36.147 41.2464C36.147 41.2463 36.147 41.2462 36.147 41.2461C36.147 41.246 36.147 41.2459 36.147 41.2458C36.147 41.2457 36.147 41.2456 36.147 41.2454C36.147 41.2453 36.147 41.2452 36.147 41.2451C36.147 41.245 36.147 41.2449 36.147 41.2448C36.147 41.2447 36.147 41.2446 36.147 41.2445C36.147 41.2444 36.147 41.2443 36.147 41.2442C36.147 41.2441 36.147 41.244 36.147 41.2439C36.147 41.2438 36.147 41.2437 36.147 41.2436C36.147 41.2434 36.147 41.2433 36.147 41.2432C36.147 41.2431 36.147 41.243 36.147 41.2429C36.147 41.2428 36.147 41.2427 36.147 41.2426C36.147 41.2425 36.147 41.2424 36.147 41.2423C36.147 41.2422 36.147 41.2421 36.147 41.242C36.147 41.2419 36.147 41.2418 36.147 41.2417C36.147 41.2416 36.147 41.2414 36.147 41.2413C36.147 41.2412 36.147 41.2411 36.147 41.241C36.147 41.2409 36.147 41.2408 36.147 41.2407C36.147 41.2406 36.147 41.2405 36.147 41.2404C36.147 41.2403 36.147 41.2402 36.147 41.2401C36.147 41.24 36.147 41.2399 36.147 41.2398C36.147 41.2397 36.147 41.2396 36.147 41.2395C36.147 41.2394 36.147 41.2392 36.147 41.2391C36.147 41.239 36.147 41.2389 36.147 41.2388C36.147 41.2387 36.147 41.2386 36.147 41.2385C36.147 41.2384 36.147 41.2383 36.147 41.2382C36.147 41.2381 36.147 41.238 36.147 41.2379C36.147 41.2378 36.147 41.2377 36.147 41.2376C36.147 41.2375 36.147 41.2374 36.147 41.2373C36.147 41.2372 36.147 41.237 36.147 41.2369C36.147 41.2368 36.147 41.2367 36.147 41.2366C36.147 41.2365 36.147 41.2364 36.147 41.2363C36.147 41.2362 36.147 41.2361 36.147 41.236C36.147 41.2359 36.147 41.2358 36.147 41.2357C36.147 41.2356 36.147 41.2355 36.147 41.2354C36.147 41.2353 36.147 41.2352 36.147 41.2351C36.147 41.235 36.147 41.2349 36.147 41.2348C36.147 41.2347 36.147 41.2345 36.147 41.2344C36.147 41.2343 36.147 41.2342 36.147 41.2341C36.147 41.234 36.147 41.2339 36.147 41.2338C36.147 41.2337 36.147 41.2336 36.147 41.2335C36.147 41.2334 36.147 41.2333 36.147 41.2332C36.147 41.2331 36.147 41.233 36.147 41.2329C36.147 41.2328 36.147 41.2327 36.147 41.2326C36.147 41.2325 36.147 41.2324 36.147 41.2323C36.147 41.2322 36.147 41.2321 36.147 41.232C36.147 41.2318 36.147 41.2317 36.147 41.2316C36.147 41.2315 36.147 41.2314 36.147 41.2313C36.147 41.2312 36.147 41.2311 36.147 41.231C36.147 41.2309 36.147 41.2308 36.147 41.2307C36.147 41.2306 36.147 41.2305 36.147 41.2304C36.147 41.2303 36.147 41.2302 36.147 41.2301C36.147 41.23 36.147 41.2299 36.147 41.2298C36.147 41.2297 36.147 41.2296 36.147 41.2295C36.147 41.2294 36.147 41.2293 36.147 41.2292C36.147 41.2291 36.147 41.229 36.147 41.2289C36.147 41.2287 36.147 41.2286 36.147 41.2285C36.147 41.2284 36.147 41.2283 36.147 41.2282C36.147 41.2281 36.147 41.228 36.147 41.2279C36.147 41.2278 36.147 41.2277 36.147 41.2276C36.147 41.2275 36.147 41.2274 36.147 41.2273C36.147 41.2272 36.147 41.2271 36.147 41.227C36.147 41.2269 36.147 41.2268 36.147 41.2267C36.147 41.2266 36.147 41.2265 36.147 41.2264C36.147 41.2263 36.147 41.2262 36.147 41.2261C36.147 41.226 36.147 41.2259 36.147 41.2258C36.147 41.2257 36.147 41.2256 36.147 41.2255C36.147 41.2254 36.147 41.2252 36.147 41.2251C36.147 41.225 36.147 41.2249 36.147 41.2248C36.147 41.2247 36.147 41.2246 36.147 41.2245C36.147 41.2244 36.147 41.2243 36.147 41.2242C36.147 41.2241 36.147 41.224 36.147 41.2239C36.147 41.2238 36.147 41.2237 36.147 41.2236C36.147 41.2235 36.147 41.2234 36.147 41.2233C36.147 41.2232 36.147 41.2231 36.147 41.223C36.147 41.2229 36.147 41.2228 36.147 41.2227C36.147 41.2226 36.147 41.2225 36.147 41.2224C36.147 41.2223 36.147 41.2222 36.147 41.2221C36.147 41.222 36.147 41.2219 36.147 41.2218C36.147 41.2217 36.147 41.2216 36.147 41.2215C36.147 41.2214 36.147 41.2213 36.147 41.2212C36.147 41.2211 36.147 41.221 36.147 41.2208C36.147 41.2207 36.147 41.2206 36.147 41.2205C36.147 41.2204 36.147 41.2203 36.147 41.2202C36.147 41.2201 36.147 41.22 36.147 41.2199C36.147 41.2198 36.147 41.2197 36.147 41.2196C36.147 41.2195 36.147 41.2194 36.147 41.2193C36.147 41.2192 36.147 41.2191 36.147 41.219C36.147 41.2189 36.147 41.2188 36.147 41.2187C36.147 41.2186 36.147 41.2185 36.147 41.2184C36.147 41.2183 36.147 41.2182 36.147 41.2181C36.147 41.218 36.147 41.2179 36.147 41.2178C36.147 41.2177 36.147 41.2176 36.147 41.2175C36.147 41.2174 36.147 41.2173 36.147 41.2172C36.147 41.2171 36.147 41.217 36.147 41.2169C36.147 41.2168 36.147 41.2167 36.147 41.2166C36.147 41.2165 36.147 41.2164 36.147 41.2163C36.147 41.2162 36.147 41.2161 36.147 41.216C36.147 41.2159 36.147 41.2158 36.147 41.2157C36.147 41.2156 36.147 41.2155 36.147 41.2154C36.147 41.2153 36.147 41.2152 36.147 41.2151C36.147 41.215 36.147 41.2149 36.147 41.2148C36.147 41.2147 36.147 41.2146 36.147 41.2145C36.147 41.2144 36.147 41.2143 36.147 41.2142C36.147 41.2141 36.147 41.2139 36.147 41.2138C36.147 41.2137 36.147 41.2136 36.147 41.2135C36.147 41.2134 36.147 41.2133 36.147 41.2132C36.147 41.2131 36.147 41.213 36.147 41.2129C36.147 41.2128 36.147 41.2127 36.147 41.2126C36.147 41.2125 36.147 41.2124 36.147 41.2123C36.147 41.2122 36.147 41.2121 36.147 41.212C36.147 41.2119 36.147 41.2118 36.147 41.2117C36.147 41.2116 36.147 41.2115 36.147 41.2114C36.147 41.2113 36.147 41.2112 36.147 41.2111C36.147 41.211 36.147 41.2109 36.147 41.2108C36.147 41.2107 36.147 41.2106 36.147 41.2105C36.147 41.2104 36.147 41.2103 36.147 41.2102C36.147 41.2101 36.147 41.21 36.147 41.2099C36.147 41.2098 36.147 41.2097 36.147 41.2096C36.147 41.2095 36.147 41.2094 36.147 41.2093C36.147 41.2092 36.147 41.2091 36.147 41.209C36.147 41.2089 36.147 41.2088 36.147 41.2087C36.147 41.2086 36.147 41.2085 36.147 41.2084C36.147 41.2083 36.147 41.2082 36.147 41.2081C36.147 41.208 36.147 41.2079 36.147 41.2078C36.147 41.2077 36.147 41.2076 36.147 41.2075C36.147 41.2074 36.147 41.2073 36.147 41.2072C36.147 41.2071 36.147 41.207 36.147 41.2069C36.147 41.2068 36.147 41.2067 36.147 41.2066C36.147 41.2065 36.147 41.2064 36.147 41.2063C36.147 41.2062 36.147 41.2061 36.147 41.206C36.147 41.2059 36.147 41.2058 36.147 41.2057C36.147 41.2056 36.147 41.2055 36.147 41.2054C36.147 41.2053 36.147 41.2052 36.147 41.2051C36.147 41.205 36.147 41.2049 36.147 41.2048C36.147 41.2047 36.147 41.2046 36.147 41.2045C36.147 41.2044 36.147 41.2043 36.147 41.2042C36.147 41.2041 36.147 41.204 36.147 41.2039C36.147 41.2038 36.147 41.2037 36.147 41.2036C36.147 41.2035 36.147 41.2034 36.147 41.2033C36.147 41.2032 36.147 41.2031 36.147 41.203C36.147 41.2029 36.147 41.2028 36.147 41.2027C36.147 41.2026 36.147 41.2025 36.147 41.2024C36.147 41.2023 36.147 41.2022 36.147 41.2021C36.147 41.202 36.147 41.2019 36.147 41.2018C36.147 41.2017 36.147 41.2016 36.147 41.2015C36.147 41.2014 36.147 41.2014 36.147 41.2013C36.147 41.2012 36.147 41.2011 36.147 41.201C36.147 41.2009 36.147 41.2008 36.147 41.2007C36.147 41.2006 36.147 41.2005 36.147 41.2004C36.147 41.2003 36.147 41.2002 36.147 41.2001C36.147 41.2 36.147 41.1999 36.147 41.1998C36.147 41.1997 36.147 41.1996 36.147 41.1995C36.147 41.1994 36.147 41.1993 36.147 41.1992C36.147 41.1991 36.147 41.199 36.147 41.1989C36.147 41.1988 36.147 41.1987 36.147 41.1986C36.147 41.1985 36.147 41.1984 36.147 41.1983C36.147 41.1982 36.147 41.1981 36.147 41.198C36.147 41.1979 36.147 41.1978 36.147 41.1977C36.147 41.1976 36.147 41.1975 36.147 41.1974C36.147 41.1973 36.147 41.1972 36.147 41.1971C36.147 41.197 36.147 41.1969 36.147 41.1968C36.147 41.1967 36.147 41.1966 36.147 41.1965C36.147 41.1964 36.147 41.1963 36.147 41.1962C36.147 41.1961 36.147 41.196 36.147 41.1959C36.147 41.1958 36.147 41.1957 36.147 41.1956C36.147 41.1955 36.147 41.1954 36.147 41.1953C36.147 41.1952 36.147 41.1951 36.147 41.195C36.147 41.1949 36.147 41.1948 36.147 41.1947C36.147 41.1947 36.147 41.1946 36.147 41.1945C36.147 41.1944 36.147 41.1943 36.147 41.1942C36.147 41.1941 36.147 41.194 36.147 41.1939C36.147 41.1938 36.147 41.1937 36.147 41.1936C36.147 41.1935 36.147 41.1934 36.147 41.1933C36.147 41.1932 36.147 41.1931 36.147 41.193C36.147 41.1929 36.147 41.1928 36.147 41.1927C36.147 41.1926 36.147 41.1925 36.147 41.1924C36.147 41.1923 36.147 41.1922 36.147 41.1921C36.147 41.192 36.147 41.1919 36.147 41.1918C36.147 41.1917 36.147 41.1916 36.147 41.1915C36.147 41.1914 36.147 41.1913 36.147 41.1912C36.147 41.1911 36.147 41.191 36.147 41.1909C36.147 41.1908 36.147 41.1907 36.147 41.1906C36.147 41.1905 36.147 41.1905 36.147 41.1904C36.147 41.1903 36.147 41.1902 36.147 41.1901C36.147 41.19 36.147 41.1899 36.147 41.1898C36.147 41.1897 36.147 41.1896 36.147 41.1895C36.147 41.1894 36.147 41.1893 36.147 41.1892C36.147 41.1891 36.147 41.189 36.147 41.1889C36.147 41.1888 36.147 41.1887 36.147 41.1886C36.147 41.1885 36.147 41.1884 36.147 41.1883C36.147 41.1882 36.147 41.1881 36.147 41.188C36.147 41.1879 36.147 41.1878 36.147 41.1877C36.147 41.1876 36.147 41.1875 36.147 41.1874C36.147 41.1873 36.147 41.1872 36.147 41.1872C36.147 41.1871 36.147 41.187 36.147 41.1869C36.147 41.1868 36.147 41.1867 36.147 41.1866C36.147 41.1865 36.147 41.1864 36.147 41.1863C36.147 41.1862 36.147 41.1861 36.147 41.186C36.147 41.1859 36.147 41.1858 36.147 41.1857C36.147 41.1856 36.147 41.1855 36.147 41.1854C36.147 41.1853 36.147 41.1852 36.147 41.1851C36.147 41.185 36.147 41.1849 36.147 41.1848C36.147 41.1847 36.147 41.1846 36.147 41.1845C36.147 41.1844 36.147 41.1844 36.147 41.1843C36.147 41.1842 36.147 41.1841 36.147 41.184C36.147 41.1839 36.147 41.1838 36.147 41.1837C36.147 41.1836 36.147 41.1835 36.147 41.1834C36.147 41.1833 36.147 41.1832 36.147 41.1831C36.147 41.183 36.147 41.1829 36.147 41.1828C36.147 41.1827 36.147 41.1826 36.147 41.1825C36.147 41.1824 36.147 41.1823 36.147 41.1822C36.147 41.1821 36.147 41.182 36.147 41.1819C36.147 41.1819 36.147 41.1818 36.147 41.1817C36.147 41.1816 36.147 41.1815 36.147 41.1814C36.147 41.1813 36.147 41.1812 36.147 41.1811C36.147 41.181 36.147 41.1809 36.147 41.1808C36.147 41.1807 36.147 41.1806 36.147 41.1805C36.147 41.1804 36.147 41.1803 36.147 41.1802C36.147 41.1801 36.147 41.18 36.147 41.1799C36.147 41.1798 36.147 41.1797 36.147 41.1796C36.147 41.1796 36.147 41.1795 36.147 41.1794C36.147 41.1793 36.147 41.1792 36.147 41.1791C36.147 41.179 36.147 41.1789 36.147 41.1788C36.147 41.1787 36.147 41.1786 36.147 41.1785C36.147 41.1784 36.147 41.1783 36.147 41.1782C36.147 41.1781 36.147 41.178 36.147 41.1779C36.147 41.1778 36.147 41.1777 36.147 41.1776C36.147 41.1775 36.147 41.1775 36.147 41.1774C36.147 41.1773 36.147 41.1772 36.147 41.1771C36.147 41.177 36.147 41.1769 36.147 41.1768C36.147 41.1767 36.147 41.1766 36.147 41.1765C36.147 41.1764 36.147 41.1763 36.147 41.1762C36.147 41.1761 36.147 41.176 36.147 41.1759C36.147 41.1758 36.147 41.1757 36.147 41.1756C36.147 41.1755 36.147 41.1755 36.147 41.1754C36.147 41.1753 36.147 41.1752 36.147 41.1751C36.147 41.175 36.147 41.1749 36.147 41.1748C36.147 41.1747 36.147 41.1746 36.147 41.1745C36.147 41.1744 36.147 41.1743 36.147 41.1742C36.147 41.1741 36.147 41.174 36.147 41.1739C36.147 41.1738 36.147 41.1737 36.147 41.1737C36.147 41.1736 36.147 41.1735 36.147 41.1734C36.147 41.1733 36.147 41.1732 36.147 41.1731C36.147 41.173 36.147 41.1729 36.147 41.1728C36.147 41.1727 36.147 41.1726 36.147 41.1725C36.147 41.1724 36.147 41.1723 36.147 41.1722C36.147 41.1721 36.147 41.172 36.147 41.172C36.147 41.1719 36.147 41.1718 36.147 41.1717C36.147 41.1716 36.147 41.1715 36.147 41.1714C36.147 41.1713 36.147 41.1712 36.147 41.1711C36.147 41.171 36.147 41.1709 36.147 41.1708C36.147 41.1707 36.147 41.1706 36.147 41.1705C36.147 41.1704 36.147 41.1703 36.147 41.1703C36.147 41.1702 36.147 41.1701 36.147 41.17C36.147 41.1699 36.147 41.1698 36.147 41.1697C36.147 41.1696 36.147 41.1695 36.147 41.1694C36.147 41.1693 36.147 41.1692 36.147 41.1691C36.147 41.169 36.147 41.1689 36.147 41.1688C36.147 41.1688 36.147 41.1687 36.147 41.1686C36.147 41.1685 36.147 41.1684 36.147 41.1683C36.147 41.1682 36.147 41.1681 36.147 41.168H35.547C35.547 41.1681 35.547 41.1682 35.547 41.1683C35.547 41.1684 35.547 41.1685 35.547 41.1686C35.547 41.1687 35.547 41.1688 35.547 41.1688C35.547 41.1689 35.547 41.169 35.547 41.1691C35.547 41.1692 35.547 41.1693 35.547 41.1694C35.547 41.1695 35.547 41.1696 35.547 41.1697C35.547 41.1698 35.547 41.1699 35.547 41.17C35.547 41.1701 35.547 41.1702 35.547 41.1703C35.547 41.1703 35.547 41.1704 35.547 41.1705C35.547 41.1706 35.547 41.1707 35.547 41.1708C35.547 41.1709 35.547 41.171 35.547 41.1711C35.547 41.1712 35.547 41.1713 35.547 41.1714C35.547 41.1715 35.547 41.1716 35.547 41.1717C35.547 41.1718 35.547 41.1719 35.547 41.172C35.547 41.172 35.547 41.1721 35.547 41.1722C35.547 41.1723 35.547 41.1724 35.547 41.1725C35.547 41.1726 35.547 41.1727 35.547 41.1728C35.547 41.1729 35.547 41.173 35.547 41.1731C35.547 41.1732 35.547 41.1733 35.547 41.1734C35.547 41.1735 35.547 41.1736 35.547 41.1737C35.547 41.1737 35.547 41.1738 35.547 41.1739C35.547 41.174 35.547 41.1741 35.547 41.1742C35.547 41.1743 35.547 41.1744 35.547 41.1745C35.547 41.1746 35.547 41.1747 35.547 41.1748C35.547 41.1749 35.547 41.175 35.547 41.1751C35.547 41.1752 35.547 41.1753 35.547 41.1754C35.547 41.1755 35.547 41.1755 35.547 41.1756C35.547 41.1757 35.547 41.1758 35.547 41.1759C35.547 41.176 35.547 41.1761 35.547 41.1762C35.547 41.1763 35.547 41.1764 35.547 41.1765C35.547 41.1766 35.547 41.1767 35.547 41.1768C35.547 41.1769 35.547 41.177 35.547 41.1771C35.547 41.1772 35.547 41.1773 35.547 41.1774C35.547 41.1775 35.547 41.1775 35.547 41.1776C35.547 41.1777 35.547 41.1778 35.547 41.1779C35.547 41.178 35.547 41.1781 35.547 41.1782C35.547 41.1783 35.547 41.1784 35.547 41.1785C35.547 41.1786 35.547 41.1787 35.547 41.1788C35.547 41.1789 35.547 41.179 35.547 41.1791C35.547 41.1792 35.547 41.1793 35.547 41.1794C35.547 41.1795 35.547 41.1796 35.547 41.1796C35.547 41.1797 35.547 41.1798 35.547 41.1799C35.547 41.18 35.547 41.1801 35.547 41.1802C35.547 41.1803 35.547 41.1804 35.547 41.1805C35.547 41.1806 35.547 41.1807 35.547 41.1808C35.547 41.1809 35.547 41.181 35.547 41.1811C35.547 41.1812 35.547 41.1813 35.547 41.1814C35.547 41.1815 35.547 41.1816 35.547 41.1817C35.547 41.1818 35.547 41.1819 35.547 41.1819C35.547 41.182 35.547 41.1821 35.547 41.1822C35.547 41.1823 35.547 41.1824 35.547 41.1825C35.547 41.1826 35.547 41.1827 35.547 41.1828C35.547 41.1829 35.547 41.183 35.547 41.1831C35.547 41.1832 35.547 41.1833 35.547 41.1834C35.547 41.1835 35.547 41.1836 35.547 41.1837C35.547 41.1838 35.547 41.1839 35.547 41.184C35.547 41.1841 35.547 41.1842 35.547 41.1843C35.547 41.1844 35.547 41.1844 35.547 41.1845C35.547 41.1846 35.547 41.1847 35.547 41.1848C35.547 41.1849 35.547 41.185 35.547 41.1851C35.547 41.1852 35.547 41.1853 35.547 41.1854C35.547 41.1855 35.547 41.1856 35.547 41.1857C35.547 41.1858 35.547 41.1859 35.547 41.186C35.547 41.1861 35.547 41.1862 35.547 41.1863C35.547 41.1864 35.547 41.1865 35.547 41.1866C35.547 41.1867 35.547 41.1868 35.547 41.1869C35.547 41.187 35.547 41.1871 35.547 41.1872C35.547 41.1872 35.547 41.1873 35.547 41.1874C35.547 41.1875 35.547 41.1876 35.547 41.1877C35.547 41.1878 35.547 41.1879 35.547 41.188C35.547 41.1881 35.547 41.1882 35.547 41.1883C35.547 41.1884 35.547 41.1885 35.547 41.1886C35.547 41.1887 35.547 41.1888 35.547 41.1889C35.547 41.189 35.547 41.1891 35.547 41.1892C35.547 41.1893 35.547 41.1894 35.547 41.1895C35.547 41.1896 35.547 41.1897 35.547 41.1898C35.547 41.1899 35.547 41.19 35.547 41.1901C35.547 41.1902 35.547 41.1903 35.547 41.1904C35.547 41.1905 35.547 41.1905 35.547 41.1906C35.547 41.1907 35.547 41.1908 35.547 41.1909C35.547 41.191 35.547 41.1911 35.547 41.1912C35.547 41.1913 35.547 41.1914 35.547 41.1915C35.547 41.1916 35.547 41.1917 35.547 41.1918C35.547 41.1919 35.547 41.192 35.547 41.1921C35.547 41.1922 35.547 41.1923 35.547 41.1924C35.547 41.1925 35.547 41.1926 35.547 41.1927C35.547 41.1928 35.547 41.1929 35.547 41.193C35.547 41.1931 35.547 41.1932 35.547 41.1933C35.547 41.1934 35.547 41.1935 35.547 41.1936C35.547 41.1937 35.547 41.1938 35.547 41.1939C35.547 41.194 35.547 41.1941 35.547 41.1942C35.547 41.1943 35.547 41.1944 35.547 41.1945C35.547 41.1946 35.547 41.1947 35.547 41.1947C35.547 41.1948 35.547 41.1949 35.547 41.195C35.547 41.1951 35.547 41.1952 35.547 41.1953C35.547 41.1954 35.547 41.1955 35.547 41.1956C35.547 41.1957 35.547 41.1958 35.547 41.1959C35.547 41.196 35.547 41.1961 35.547 41.1962C35.547 41.1963 35.547 41.1964 35.547 41.1965C35.547 41.1966 35.547 41.1967 35.547 41.1968C35.547 41.1969 35.547 41.197 35.547 41.1971C35.547 41.1972 35.547 41.1973 35.547 41.1974C35.547 41.1975 35.547 41.1976 35.547 41.1977C35.547 41.1978 35.547 41.1979 35.547 41.198C35.547 41.1981 35.547 41.1982 35.547 41.1983C35.547 41.1984 35.547 41.1985 35.547 41.1986C35.547 41.1987 35.547 41.1988 35.547 41.1989C35.547 41.199 35.547 41.1991 35.547 41.1992C35.547 41.1993 35.547 41.1994 35.547 41.1995C35.547 41.1996 35.547 41.1997 35.547 41.1998C35.547 41.1999 35.547 41.2 35.547 41.2001C35.547 41.2002 35.547 41.2003 35.547 41.2004C35.547 41.2005 35.547 41.2006 35.547 41.2007C35.547 41.2008 35.547 41.2009 35.547 41.201C35.547 41.2011 35.547 41.2012 35.547 41.2013C35.547 41.2014 35.547 41.2014 35.547 41.2015C35.547 41.2016 35.547 41.2017 35.547 41.2018C35.547 41.2019 35.547 41.202 35.547 41.2021C35.547 41.2022 35.547 41.2023 35.547 41.2024C35.547 41.2025 35.547 41.2026 35.547 41.2027C35.547 41.2028 35.547 41.2029 35.547 41.203C35.547 41.2031 35.547 41.2032 35.547 41.2033C35.547 41.2034 35.547 41.2035 35.547 41.2036C35.547 41.2037 35.547 41.2038 35.547 41.2039C35.547 41.204 35.547 41.2041 35.547 41.2042C35.547 41.2043 35.547 41.2044 35.547 41.2045C35.547 41.2046 35.547 41.2047 35.547 41.2048C35.547 41.2049 35.547 41.205 35.547 41.2051C35.547 41.2052 35.547 41.2053 35.547 41.2054C35.547 41.2055 35.547 41.2056 35.547 41.2057C35.547 41.2058 35.547 41.2059 35.547 41.206C35.547 41.2061 35.547 41.2062 35.547 41.2063C35.547 41.2064 35.547 41.2065 35.547 41.2066C35.547 41.2067 35.547 41.2068 35.547 41.2069C35.547 41.207 35.547 41.2071 35.547 41.2072C35.547 41.2073 35.547 41.2074 35.547 41.2075C35.547 41.2076 35.547 41.2077 35.547 41.2078C35.547 41.2079 35.547 41.208 35.547 41.2081C35.547 41.2082 35.547 41.2083 35.547 41.2084C35.547 41.2085 35.547 41.2086 35.547 41.2087C35.547 41.2088 35.547 41.2089 35.547 41.209C35.547 41.2091 35.547 41.2092 35.547 41.2093C35.547 41.2094 35.547 41.2095 35.547 41.2096C35.547 41.2097 35.547 41.2098 35.547 41.2099C35.547 41.21 35.547 41.2101 35.547 41.2102C35.547 41.2103 35.547 41.2104 35.547 41.2105C35.547 41.2106 35.547 41.2107 35.547 41.2108C35.547 41.2109 35.547 41.211 35.547 41.2111C35.547 41.2112 35.547 41.2113 35.547 41.2114C35.547 41.2115 35.547 41.2116 35.547 41.2117C35.547 41.2118 35.547 41.2119 35.547 41.212C35.547 41.2121 35.547 41.2122 35.547 41.2123C35.547 41.2124 35.547 41.2125 35.547 41.2126C35.547 41.2127 35.547 41.2128 35.547 41.2129C35.547 41.213 35.547 41.2131 35.547 41.2132C35.547 41.2133 35.547 41.2134 35.547 41.2135C35.547 41.2136 35.547 41.2137 35.547 41.2138C35.547 41.2139 35.547 41.2141 35.547 41.2142C35.547 41.2143 35.547 41.2144 35.547 41.2145C35.547 41.2146 35.547 41.2147 35.547 41.2148C35.547 41.2149 35.547 41.215 35.547 41.2151C35.547 41.2152 35.547 41.2153 35.547 41.2154C35.547 41.2155 35.547 41.2156 35.547 41.2157C35.547 41.2158 35.547 41.2159 35.547 41.216C35.547 41.2161 35.547 41.2162 35.547 41.2163C35.547 41.2164 35.547 41.2165 35.547 41.2166C35.547 41.2167 35.547 41.2168 35.547 41.2169C35.547 41.217 35.547 41.2171 35.547 41.2172C35.547 41.2173 35.547 41.2174 35.547 41.2175C35.547 41.2176 35.547 41.2177 35.547 41.2178C35.547 41.2179 35.547 41.218 35.547 41.2181C35.547 41.2182 35.547 41.2183 35.547 41.2184C35.547 41.2185 35.547 41.2186 35.547 41.2187C35.547 41.2188 35.547 41.2189 35.547 41.219C35.547 41.2191 35.547 41.2192 35.547 41.2193C35.547 41.2194 35.547 41.2195 35.547 41.2196C35.547 41.2197 35.547 41.2198 35.547 41.2199C35.547 41.22 35.547 41.2201 35.547 41.2202C35.547 41.2203 35.547 41.2204 35.547 41.2205C35.547 41.2206 35.547 41.2207 35.547 41.2208C35.547 41.221 35.547 41.2211 35.547 41.2212C35.547 41.2213 35.547 41.2214 35.547 41.2215C35.547 41.2216 35.547 41.2217 35.547 41.2218C35.547 41.2219 35.547 41.222 35.547 41.2221C35.547 41.2222 35.547 41.2223 35.547 41.2224C35.547 41.2225 35.547 41.2226 35.547 41.2227C35.547 41.2228 35.547 41.2229 35.547 41.223C35.547 41.2231 35.547 41.2232 35.547 41.2233C35.547 41.2234 35.547 41.2235 35.547 41.2236C35.547 41.2237 35.547 41.2238 35.547 41.2239C35.547 41.224 35.547 41.2241 35.547 41.2242C35.547 41.2243 35.547 41.2244 35.547 41.2245C35.547 41.2246 35.547 41.2247 35.547 41.2248C35.547 41.2249 35.547 41.225 35.547 41.2251C35.547 41.2252 35.547 41.2254 35.547 41.2255C35.547 41.2256 35.547 41.2257 35.547 41.2258C35.547 41.2259 35.547 41.226 35.547 41.2261C35.547 41.2262 35.547 41.2263 35.547 41.2264C35.547 41.2265 35.547 41.2266 35.547 41.2267C35.547 41.2268 35.547 41.2269 35.547 41.227C35.547 41.2271 35.547 41.2272 35.547 41.2273C35.547 41.2274 35.547 41.2275 35.547 41.2276C35.547 41.2277 35.547 41.2278 35.547 41.2279C35.547 41.228 35.547 41.2281 35.547 41.2282C35.547 41.2283 35.547 41.2284 35.547 41.2285C35.547 41.2286 35.547 41.2287 35.547 41.2289C35.547 41.229 35.547 41.2291 35.547 41.2292C35.547 41.2293 35.547 41.2294 35.547 41.2295C35.547 41.2296 35.547 41.2297 35.547 41.2298C35.547 41.2299 35.547 41.23 35.547 41.2301C35.547 41.2302 35.547 41.2303 35.547 41.2304C35.547 41.2305 35.547 41.2306 35.547 41.2307C35.547 41.2308 35.547 41.2309 35.547 41.231C35.547 41.2311 35.547 41.2312 35.547 41.2313C35.547 41.2314 35.547 41.2315 35.547 41.2316C35.547 41.2317 35.547 41.2318 35.547 41.232C35.547 41.2321 35.547 41.2322 35.547 41.2323C35.547 41.2324 35.547 41.2325 35.547 41.2326C35.547 41.2327 35.547 41.2328 35.547 41.2329C35.547 41.233 35.547 41.2331 35.547 41.2332C35.547 41.2333 35.547 41.2334 35.547 41.2335C35.547 41.2336 35.547 41.2337 35.547 41.2338C35.547 41.2339 35.547 41.234 35.547 41.2341C35.547 41.2342 35.547 41.2343 35.547 41.2344C35.547 41.2345 35.547 41.2347 35.547 41.2348C35.547 41.2349 35.547 41.235 35.547 41.2351C35.547 41.2352 35.547 41.2353 35.547 41.2354C35.547 41.2355 35.547 41.2356 35.547 41.2357C35.547 41.2358 35.547 41.2359 35.547 41.236C35.547 41.2361 35.547 41.2362 35.547 41.2363C35.547 41.2364 35.547 41.2365 35.547 41.2366C35.547 41.2367 35.547 41.2368 35.547 41.2369C35.547 41.237 35.547 41.2372 35.547 41.2373C35.547 41.2374 35.547 41.2375 35.547 41.2376C35.547 41.2377 35.547 41.2378 35.547 41.2379C35.547 41.238 35.547 41.2381 35.547 41.2382C35.547 41.2383 35.547 41.2384 35.547 41.2385C35.547 41.2386 35.547 41.2387 35.547 41.2388C35.547 41.2389 35.547 41.239 35.547 41.2391C35.547 41.2392 35.547 41.2394 35.547 41.2395C35.547 41.2396 35.547 41.2397 35.547 41.2398C35.547 41.2399 35.547 41.24 35.547 41.2401C35.547 41.2402 35.547 41.2403 35.547 41.2404C35.547 41.2405 35.547 41.2406 35.547 41.2407C35.547 41.2408 35.547 41.2409 35.547 41.241C35.547 41.2411 35.547 41.2412 35.547 41.2413C35.547 41.2414 35.547 41.2416 35.547 41.2417C35.547 41.2418 35.547 41.2419 35.547 41.242C35.547 41.2421 35.547 41.2422 35.547 41.2423C35.547 41.2424 35.547 41.2425 35.547 41.2426C35.547 41.2427 35.547 41.2428 35.547 41.2429C35.547 41.243 35.547 41.2431 35.547 41.2432C35.547 41.2433 35.547 41.2434 35.547 41.2436C35.547 41.2437 35.547 41.2438 35.547 41.2439C35.547 41.244 35.547 41.2441 35.547 41.2442C35.547 41.2443 35.547 41.2444 35.547 41.2445C35.547 41.2446 35.547 41.2447 35.547 41.2448C35.547 41.2449 35.547 41.245 35.547 41.2451C35.547 41.2452 35.547 41.2453 35.547 41.2454C35.547 41.2456 35.547 41.2457 35.547 41.2458C35.547 41.2459 35.547 41.246 35.547 41.2461C35.547 41.2462 35.547 41.2463 35.547 41.2464C35.547 41.2465 35.547 41.2466 35.547 41.2467C35.547 41.2468 35.547 41.2469 35.547 41.247C35.547 41.2471 35.547 41.2472 35.547 41.2474C35.547 41.2475 35.547 41.2476 35.547 41.2477C35.547 41.2478 35.547 41.2479 35.547 41.248C35.547 41.2481 35.547 41.2482 35.547 41.2483C35.547 41.2484 35.547 41.2485 35.547 41.2486C35.547 41.2487 35.547 41.2488 35.547 41.2489C35.547 41.249 35.547 41.2492 35.547 41.2493C35.547 41.2494 35.547 41.2495 35.547 41.2496C35.547 41.2497 35.547 41.2498 35.547 41.2499C35.547 41.25 35.547 41.2501 35.547 41.2502C35.547 41.2503 35.547 41.2504 35.547 41.2505C35.547 41.2506 35.547 41.2507 35.547 41.2509C35.547 41.251 35.547 41.2511 35.547 41.2512C35.547 41.2513 35.547 41.2514 35.547 41.2515C35.547 41.2516 35.547 41.2517 35.547 41.2518C35.547 41.2519 35.547 41.252 35.547 41.2521C35.547 41.2522 35.547 41.2523 35.547 41.2525C35.547 41.2526 35.547 41.2527 35.547 41.2528C35.547 41.2529 35.547 41.253 35.547 41.2531C35.547 41.2532 35.547 41.2533 35.547 41.2534C35.547 41.2535 35.547 41.2536 35.547 41.2537C35.547 41.2538 35.547 41.2539 35.547 41.2541C35.547 41.2542 35.547 41.2543 35.547 41.2544C35.547 41.2545 35.547 41.2546 35.547 41.2547C35.547 41.2548 35.547 41.2549 35.547 41.255C35.547 41.2551 35.547 41.2552 35.547 41.2553C35.547 41.2554 35.547 41.2556 35.547 41.2557C35.547 41.2558 35.547 41.2559 35.547 41.256C35.547 41.2561 35.547 41.2562 35.547 41.2563C35.547 41.2564 35.547 41.2565 35.547 41.2566C35.547 41.2567 35.547 41.2568 35.547 41.2569C35.547 41.2571 35.547 41.2572 35.547 41.2573C35.547 41.2574 35.547 41.2575 35.547 41.2576C35.547 41.2577 35.547 41.2578 35.547 41.2579C35.547 41.258 35.547 41.2581 35.547 41.2582C35.547 41.2583 35.547 41.2584 35.547 41.2586C35.547 41.2587 35.547 41.2588 35.547 41.2589C35.547 41.259 35.547 41.2591 35.547 41.2592C35.547 41.2593 35.547 41.2594 35.547 41.2595C35.547 41.2596 35.547 41.2597 35.547 41.2598C35.547 41.26 35.547 41.2601 35.547 41.2602C35.547 41.2603 35.547 41.2604 35.547 41.2605C35.547 41.2606 35.547 41.2607 35.547 41.2608C35.547 41.2609 35.547 41.261 35.547 41.2611C35.547 41.2612 35.547 41.2614 35.547 41.2615C35.547 41.2616 35.547 41.2617 35.547 41.2618C35.547 41.2619 35.547 41.262 35.547 41.2621C35.547 41.2622 35.547 41.2623 35.547 41.2624C35.547 41.2625 35.547 41.2626 35.547 41.2628C35.547 41.2629 35.547 41.263 35.547 41.2631C35.547 41.2632 35.547 41.2633 35.547 41.2634C35.547 41.2635 35.547 41.2636 35.547 41.2637C35.547 41.2638 35.547 41.2639 35.547 41.2641C35.547 41.2642 35.547 41.2643 35.547 41.2644C35.547 41.2645 35.547 41.2646 35.547 41.2647C35.547 41.2648 35.547 41.2649 35.547 41.265C35.547 41.2651 35.547 41.2652 35.547 41.2654C35.547 41.2655 35.547 41.2656 35.547 41.2657C35.547 41.2658 35.547 41.2659 35.547 41.266C35.547 41.2661 35.547 41.2662 35.547 41.2663C35.547 41.2664 35.547 41.2665 35.547 41.2667C35.547 41.2668 35.547 41.2669 35.547 41.267C35.547 41.2671 35.547 41.2672 35.547 41.2673C35.547 41.2674 35.547 41.2675 35.547 41.2676C35.547 41.2677 35.547 41.2679 35.547 41.268C35.547 41.2681 35.547 41.2682 35.547 41.2683C35.547 41.2684 35.547 41.2685 35.547 41.2686C35.547 41.2687 35.547 41.2688 35.547 41.2689C35.547 41.2691 35.547 41.2692 35.547 41.2693C35.547 41.2694 35.547 41.2695 35.547 41.2696C35.547 41.2697 35.547 41.2698 35.547 41.2699C35.547 41.27 35.547 41.2701 35.547 41.2703C35.547 41.2704 35.547 41.2705 35.547 41.2706C35.547 41.2707 35.547 41.2708 35.547 41.2709C35.547 41.271 35.547 41.2711 35.547 41.2712C35.547 41.2713 35.547 41.2715 35.547 41.2716C35.547 41.2717 35.547 41.2718 35.547 41.2719C35.547 41.272 35.547 41.2721 35.547 41.2722C35.547 41.2723 35.547 41.2724 35.547 41.2725C35.547 41.2727 35.547 41.2728 35.547 41.2729C35.547 41.273 35.547 41.2731 35.547 41.2732C35.547 41.2733 35.547 41.2734 35.547 41.2735C35.547 41.2736 35.547 41.2738 35.547 41.2739C35.547 41.274 35.547 41.2741 35.547 41.2742C35.547 41.2743 35.547 41.2744 35.547 41.2745C35.547 41.2746 35.547 41.2747 35.547 41.2748C35.547 41.275 35.547 41.2751 35.547 41.2752C35.547 41.2753 35.547 41.2754 35.547 41.2755C35.547 41.2756 35.547 41.2757 35.547 41.2758C35.547 41.2759 35.547 41.2761 35.547 41.2762C35.547 41.2763 35.547 41.2764 35.547 41.2765C35.547 41.2766 35.547 41.2767 35.547 41.2768C35.547 41.2769 35.547 41.277 35.547 41.2772C35.547 41.2773 35.547 41.2774 35.547 41.2775C35.547 41.2776 35.547 41.2777 35.547 41.2778C35.547 41.2779 35.547 41.278 35.547 41.2781C35.547 41.2783 35.547 41.2784 35.547 41.2785C35.547 41.2786 35.547 41.2787 35.547 41.2788C35.547 41.2789 35.547 41.279 35.547 41.2791C35.547 41.2793 35.547 41.2794 35.547 41.2795C35.547 41.2796 35.547 41.2797 35.547 41.2798C35.547 41.2799 35.547 41.28 35.547 41.2801C35.547 41.2802 35.547 41.2804 35.547 41.2805C35.547 41.2806 35.547 41.2807 35.547 41.2808C35.547 41.2809 35.547 41.281 35.547 41.2811C35.547 41.2812 35.547 41.2814 35.547 41.2815C35.547 41.2816 35.547 41.2817 35.547 41.2818C35.547 41.2819 35.547 41.282 35.547 41.2821C35.547 41.2822 35.547 41.2823 35.547 41.2825C35.547 41.2826 35.547 41.2827 35.547 41.2828C35.547 41.2829 35.547 41.283 35.547 41.2831C35.547 41.2832 35.547 41.2833 35.547 41.2835C35.547 41.2836 35.547 41.2837 35.547 41.2838C35.547 41.2839 35.547 41.284 35.547 41.2841C35.547 41.2842 35.547 41.2843 35.547 41.2845C35.547 41.2846 35.547 41.2847 35.547 41.2848C35.547 41.2849 35.547 41.285 35.547 41.2851C35.547 41.2852 35.547 41.2853 35.547 41.2855C35.547 41.2856 35.547 41.2857 35.547 41.2858C35.547 41.2859 35.547 41.286 35.547 41.2861C35.547 41.2862 35.547 41.2863 35.547 41.2865C35.547 41.2866 35.547 41.2867 35.547 41.2868C35.547 41.2869 35.547 41.287 35.547 41.2871C35.547 41.2872 35.547 41.2874 35.547 41.2875C35.547 41.2876 35.547 41.2877 35.547 41.2878C35.547 41.2879 35.547 41.288 35.547 41.2881C35.547 41.2882 35.547 41.2884 35.547 41.2885C35.547 41.2886 35.547 41.2887 35.547 41.2888C35.547 41.2889 35.547 41.289 35.547 41.2891C35.547 41.2892 35.547 41.2894 35.547 41.2895C35.547 41.2896 35.547 41.2897 35.547 41.2898C35.547 41.2899 35.547 41.29 35.547 41.2901C35.547 41.2903 35.547 41.2904 35.547 41.2905C35.547 41.2906 35.547 41.2907 35.547 41.2908C35.547 41.2909 35.547 41.291 35.547 41.2911C35.547 41.2913 35.547 41.2914 35.547 41.2915C35.547 41.2916 35.547 41.2917 35.547 41.2918C35.547 41.2919 35.547 41.292 35.547 41.2922C35.547 41.2923 35.547 41.2924 35.547 41.2925C35.547 41.2926 35.547 41.2927 35.547 41.2928C35.547 41.2929 35.547 41.2931 35.547 41.2932C35.547 41.2933 35.547 41.2934 35.547 41.2935C35.547 41.2936 35.547 41.2937 35.547 41.2938C35.547 41.294 35.547 41.2941 35.547 41.2942C35.547 41.2943 35.547 41.2944 35.547 41.2945C35.547 41.2946 35.547 41.2947 35.547 41.2949C35.547 41.295 35.547 41.2951 35.547 41.2952C35.547 41.2953 35.547 41.2954 35.547 41.2955C35.547 41.2956 35.547 41.2958 35.547 41.2959C35.547 41.296 35.547 41.2961 35.547 41.2962C35.547 41.2963 35.547 41.2964 35.547 41.2965C35.547 41.2967 35.547 41.2968 35.547 41.2969C35.547 41.297 35.547 41.2971 35.547 41.2972C35.547 41.2973 35.547 41.2974 35.547 41.2976C35.547 41.2977 35.547 41.2978 35.547 41.2979C35.547 41.298 35.547 41.2981 35.547 41.2982C35.547 41.2983 35.547 41.2985 35.547 41.2986C35.547 41.2987 35.547 41.2988 35.547 41.2989C35.547 41.299 35.547 41.2991 35.547 41.2993C35.547 41.2994 35.547 41.2995 35.547 41.2996C35.547 41.2997 35.547 41.2998 35.547 41.2999C35.547 41.3 35.547 41.3002 35.547 41.3003C35.547 41.3004 35.547 41.3005 35.547 41.3006C35.547 41.3007 35.547 41.3008 35.547 41.301C35.547 41.3011 35.547 41.3012 35.547 41.3013C35.547 41.3014 35.547 41.3015 35.547 41.3016C35.547 41.3017 35.547 41.3019 35.547 41.302C35.547 41.3021 35.547 41.3022 35.547 41.3023C35.547 41.3024 35.547 41.3025 35.547 41.3027C35.547 41.3028 35.547 41.3029 35.547 41.303C35.547 41.3031 35.547 41.3032 35.547 41.3033C35.547 41.3035 35.547 41.3036 35.547 41.3037C35.547 41.3038 35.547 41.3039 35.547 41.304C35.547 41.3041 35.547 41.3042 35.547 41.3044C35.547 41.3045 35.547 41.3046 35.547 41.3047C35.547 41.3048 35.547 41.3049 35.547 41.305C35.547 41.3052 35.547 41.3053 35.547 41.3054C35.547 41.3055 35.547 41.3056 35.547 41.3057C35.547 41.3058 35.547 41.306 35.547 41.3061C35.547 41.3062 35.547 41.3063 35.547 41.3064C35.547 41.3065 35.547 41.3066 35.547 41.3068C35.547 41.3069 35.547 41.307 35.547 41.3071C35.547 41.3072 35.547 41.3073 35.547 41.3074C35.547 41.3076 35.547 41.3077 35.547 41.3078C35.547 41.3079 35.547 41.308 35.547 41.3081C35.547 41.3082 35.547 41.3084 35.547 41.3085C35.547 41.3086 35.547 41.3087 35.547 41.3088C35.547 41.3089 35.547 41.309 35.547 41.3092C35.547 41.3093 35.547 41.3094 35.547 41.3095C35.547 41.3096 35.547 41.3097 35.547 41.3098C35.547 41.31 35.547 41.3101 35.547 41.3102C35.547 41.3103 35.547 41.3104 35.547 41.3105C35.547 41.3106 35.547 41.3108 35.547 41.3109C35.547 41.311 35.547 41.3111 35.547 41.3112C35.547 41.3113 35.547 41.3114 35.547 41.3116C35.547 41.3117 35.547 41.3118 35.547 41.3119C35.547 41.312 35.547 41.3121 35.547 41.3122C35.547 41.3124 35.547 41.3125 35.547 41.3126C35.547 41.3127 35.547 41.3128 35.547 41.3129C35.547 41.3131 35.547 41.3132 35.547 41.3133C35.547 41.3134 35.547 41.3135 35.547 41.3136C35.547 41.3137 35.547 41.3139 35.547 41.314C35.547 41.3141 35.547 41.3142 35.547 41.3143C35.547 41.3144 35.547 41.3145 35.547 41.3147C35.547 41.3148 35.547 41.3149 35.547 41.315C35.547 41.3151 35.547 41.3152 35.547 41.3154C35.547 41.3155 35.547 41.3156 35.547 41.3157C35.547 41.3158 35.547 41.3159 35.547 41.316C35.547 41.3162 35.547 41.3163 35.547 41.3164C35.547 41.3165 35.547 41.3166 35.547 41.3167C35.547 41.3169 35.547 41.317 35.547 41.3171C35.547 41.3172 35.547 41.3173 35.547 41.3174C35.547 41.3175 35.547 41.3177 35.547 41.3178C35.547 41.3179 35.547 41.318 35.547 41.3181C35.547 41.3182 35.547 41.3184 35.547 41.3185C35.547 41.3186 35.547 41.3187 35.547 41.3188C35.547 41.3189 35.547 41.3191 35.547 41.3192C35.547 41.3193 35.547 41.3194 35.547 41.3195C35.547 41.3196 35.547 41.3197 35.547 41.3199C35.547 41.32 35.547 41.3201 35.547 41.3202C35.547 41.3203 35.547 41.3204 35.547 41.3206C35.547 41.3207 35.547 41.3208 35.547 41.3209C35.547 41.321 35.547 41.3211 35.547 41.3213C35.547 41.3214 35.547 41.3215 35.547 41.3216C35.547 41.3217 35.547 41.3218 35.547 41.3219C35.547 41.3221 35.547 41.3222 35.547 41.3223C35.547 41.3224 35.547 41.3225 35.547 41.3226C35.547 41.3228 35.547 41.3229 35.547 41.323C35.547 41.3231 35.547 41.3232 35.547 41.3233C35.547 41.3235 35.547 41.3236 35.547 41.3237C35.547 41.3238 35.547 41.3239 35.547 41.324C35.547 41.3242 35.547 41.3243 35.547 41.3244C35.547 41.3245 35.547 41.3246 35.547 41.3247C35.547 41.3249 35.547 41.325 35.547 41.3251C35.547 41.3252 35.547 41.3253 35.547 41.3254C35.547 41.3256 35.547 41.3257 35.547 41.3258C35.547 41.3259 35.547 41.326 35.547 41.3261C35.547 41.3263 35.547 41.3264 35.547 41.3265C35.547 41.3266 35.547 41.3267 35.547 41.3268C35.547 41.327 35.547 41.3271 35.547 41.3272C35.547 41.3273 35.547 41.3274 35.547 41.3275C35.547 41.3277 35.547 41.3278 35.547 41.3279C35.547 41.328 35.547 41.3281 35.547 41.3282C35.547 41.3284 35.547 41.3285 35.547 41.3286C35.547 41.3287 35.547 41.3288 35.547 41.3289C35.547 41.3291 35.547 41.3292 35.547 41.3293C35.547 41.3294 35.547 41.3295 35.547 41.3296C35.547 41.3298 35.547 41.3299 35.547 41.33H36.147ZM36.147 41.168C36.147 40.536 35.9677 40.0098 35.5603 39.6478L35.1617 40.0962C35.4024 40.3102 35.547 40.648 35.547 41.168H36.147ZM35.5603 39.6478C35.1784 39.3083 34.7163 39.14 34.191 39.14V39.74C34.5777 39.74 34.8957 39.8597 35.1617 40.0962L35.5603 39.6478ZM45.7018 47H45.4018V47.3H45.7018V47ZM45.7018 45.794H46.0018V45.1356L45.5049 45.5676L45.7018 45.794ZM44.1538 46.856L44.2769 47.1296L44.2825 47.127L44.1538 46.856ZM40.8058 46.352L40.57 46.5376L40.572 46.54L40.8058 46.352ZM40.1398 37.874V37.574H39.8398V37.874H40.1398ZM42.2098 37.874H42.5098V37.574H42.2098V37.874ZM44.2978 45.038L44.1863 44.7594L44.183 44.7608L44.2978 45.038ZM45.5938 44.21L45.7825 44.4432L45.8938 44.3531V44.21H45.5938ZM45.5938 37.874V37.574H45.2938V37.874H45.5938ZM47.6638 37.874H47.9638V37.574H47.6638V37.874ZM47.6638 47V47.3H47.9638V47H47.6638ZM46.0018 47V45.794H45.4018V47H46.0018ZM45.5049 45.5676C44.9663 46.0359 44.4731 46.3722 44.025 46.585L44.2825 47.127C44.7944 46.8838 45.3332 46.5121 45.8986 46.0204L45.5049 45.5676ZM44.0306 46.5824C43.5866 46.7822 43.1424 46.88 42.6958 46.88V47.48C43.2331 47.48 43.7609 47.3618 44.2769 47.1296L44.0306 46.5824ZM42.6958 46.88C41.9551 46.88 41.4175 46.6339 41.0395 46.164L40.572 46.54C41.082 47.1741 41.8044 47.48 42.6958 47.48V46.88ZM41.0415 46.1664C40.6531 45.673 40.4398 44.9614 40.4398 43.994H39.8398C39.8398 45.0426 40.0704 45.903 40.57 46.5376L41.0415 46.1664ZM40.4398 43.994V37.874H39.8398V43.994H40.4398ZM40.1398 38.174H42.2098V37.574H40.1398V38.174ZM41.9098 37.874V43.742H42.5098V37.874H41.9098ZM41.9098 43.742C41.9098 44.2741 42.0064 44.7276 42.2474 45.0542C42.501 45.3977 42.8787 45.554 43.3258 45.554V44.954C43.0288 44.954 42.8485 44.8583 42.7301 44.6978C42.5991 44.5204 42.5098 44.2179 42.5098 43.742H41.9098ZM43.3258 45.554C43.6738 45.554 44.037 45.4705 44.4125 45.3152L44.183 44.7608C43.8625 44.8935 43.5777 44.954 43.3258 44.954V45.554ZM44.4092 45.3165C44.8096 45.1564 45.2686 44.8592 45.7825 44.4432L45.405 43.9768C44.9109 44.3768 44.5059 44.6316 44.1863 44.7595L44.4092 45.3165ZM45.8938 44.21V37.874H45.2938V44.21H45.8938ZM45.5938 38.174H47.6638V37.574H45.5938V38.174ZM47.3638 37.874V47H47.9638V37.874H47.3638ZM47.6638 46.7H45.7018V47.3H47.6638V46.7ZM55.8598 47H55.5598V47.3H55.8598V47ZM55.8598 45.758H56.1598V45.0337L55.6477 45.5459L55.8598 45.758ZM54.4198 46.892L54.5507 47.162L54.554 47.1603L54.4198 46.892ZM50.8738 46.064L50.631 46.2402L50.6329 46.2428L50.8738 46.064ZM51.0538 38.846L51.2813 39.0415L51.2813 39.0415L51.0538 38.846ZM54.8338 37.784L54.775 38.0782L54.7771 38.0786L54.8338 37.784ZM55.7518 38.036L55.6502 38.3183L56.0518 38.4628V38.036H55.7518ZM55.7518 33.68V33.38H55.4518V33.68H55.7518ZM57.8218 33.68H58.1218V33.38H57.8218V33.68ZM57.8218 47V47.3H58.1218V47H57.8218ZM52.5838 44.696L52.3391 44.8697L52.3429 44.8748L52.5838 44.696ZM54.6178 45.02L54.752 45.2885L54.76 45.2841L54.6178 45.02ZM55.7518 44.084L55.9667 44.2933L56.0518 44.2059V44.084H55.7518ZM55.7518 39.908H56.0518V39.7064L55.8652 39.6302L55.7518 39.908ZM56.1598 47V45.758H55.5598V47H56.1598ZM55.6477 45.5459C55.1047 46.0889 54.6514 46.4408 54.2856 46.6237L54.554 47.1603C55.0042 46.9352 55.5109 46.5311 56.0719 45.9701L55.6477 45.5459ZM54.2889 46.6221C53.9329 46.7947 53.5636 46.88 53.1778 46.88V47.48C53.656 47.48 54.1147 47.3733 54.5507 47.1619L54.2889 46.6221ZM53.1778 46.88C52.2819 46.88 51.6062 46.5476 51.1147 45.8852L50.6329 46.2428C51.2454 47.0684 52.1057 47.48 53.1778 47.48V46.88ZM51.1166 45.8878C50.6274 45.2138 50.3638 44.2407 50.3638 42.932H49.7638C49.7638 44.3113 50.0402 45.4262 50.631 46.2402L51.1166 45.8878ZM50.3638 42.932V41.96H49.7638V42.932H50.3638ZM50.3638 41.96C50.3638 40.7024 50.6804 39.7408 51.2813 39.0415L50.8263 38.6505C50.1072 39.4872 49.7638 40.6016 49.7638 41.96H50.3638ZM51.2813 39.0415C51.8713 38.355 52.7331 37.994 53.9158 37.994V37.394C52.6025 37.394 51.5562 37.801 50.8263 38.6505L51.2813 39.0415ZM53.9158 37.994C54.2084 37.994 54.4947 38.0221 54.775 38.0782L54.8926 37.4898C54.5729 37.4259 54.2472 37.394 53.9158 37.394V37.994ZM54.7771 38.0786C55.0738 38.1357 55.3648 38.2155 55.6502 38.3183L55.8534 37.7537C55.5388 37.6405 55.2178 37.5523 54.8905 37.4894L54.7771 38.0786ZM56.0518 38.036V33.68H55.4518V38.036H56.0518ZM55.7518 33.98H57.8218V33.38H55.7518V33.98ZM57.5218 33.68V47H58.1218V33.68H57.5218ZM57.8218 46.7H55.8598V47.3H57.8218V46.7ZM51.8878 42.932C51.8878 43.7563 52.0208 44.421 52.3391 44.8696L52.8284 44.5224C52.6188 44.227 52.4878 43.7157 52.4878 42.932H51.8878ZM52.3429 44.8748C52.6794 45.3284 53.1557 45.554 53.7358 45.554V44.954C53.3319 44.954 53.0402 44.8076 52.8247 44.5172L52.3429 44.8748ZM53.7358 45.554C54.069 45.554 54.409 45.4598 54.752 45.2883L54.4836 44.7517C54.2026 44.8922 53.9546 44.954 53.7358 44.954V45.554ZM54.76 45.2841C55.1123 45.0945 55.5155 44.7567 55.9667 44.2933L55.5369 43.8747C55.1001 44.3233 54.7473 44.6095 54.4756 44.7559L54.76 45.2841ZM56.0518 44.084V39.908H55.4518V44.084H56.0518ZM55.8652 39.6302C55.2512 39.3796 54.6722 39.248 54.1318 39.248V39.848C54.5754 39.848 55.0764 39.9564 55.6384 40.1858L55.8652 39.6302ZM54.1318 39.248C53.3726 39.248 52.7648 39.4871 52.3914 40.0249L52.8842 40.3671C53.1108 40.0409 53.499 39.848 54.1318 39.848V39.248ZM52.3914 40.0249C52.0448 40.524 51.8878 41.1793 51.8878 41.96H52.4878C52.4878 41.2527 52.6308 40.732 52.8842 40.3671L52.3914 40.0249ZM51.8878 41.96V42.932H52.4878V41.96H51.8878ZM67.1 46.028L67.3222 46.2295L67.3222 46.2295L67.1 46.028ZM61.196 46.028L60.9737 46.2295L60.9737 46.2295L61.196 46.028ZM61.178 38.846L60.9557 38.6445L60.9555 38.6447L61.178 38.846ZM67.1 38.846L66.8759 39.0456L66.8792 39.0492L67.1 38.846ZM65.534 40.178L65.2964 40.3613L65.299 40.3646L65.534 40.178ZM62.762 40.178L62.9969 40.3646L62.9995 40.3612L62.762 40.178ZM62.762 44.696L62.5244 44.8792L62.5244 44.8792L62.762 44.696ZM65.534 44.696L65.2964 44.5128L65.2964 44.5128L65.534 44.696ZM67.844 41.888V42.968H68.444V41.888H67.844ZM67.844 42.968C67.844 44.1833 67.5129 45.1256 66.8777 45.8265L67.3222 46.2295C68.079 45.3944 68.444 44.2967 68.444 42.968H67.844ZM66.8777 45.8265C66.2511 46.5179 65.356 46.88 64.148 46.88V47.48C65.4839 47.48 66.5568 47.0741 67.3222 46.2295L66.8777 45.8265ZM64.148 46.88C62.9399 46.88 62.0448 46.5179 61.4182 45.8265L60.9737 46.2295C61.7391 47.0741 62.812 47.48 64.148 47.48V46.88ZM61.4182 45.8265C60.783 45.1256 60.452 44.1833 60.452 42.968H59.852C59.852 44.2967 60.2169 45.3944 60.9737 46.2295L61.4182 45.8265ZM60.452 42.968V41.888H59.852V42.968H60.452ZM60.452 41.888C60.452 40.6712 60.7778 39.7354 61.4004 39.0473L60.9555 38.6447C60.2101 39.4686 59.852 40.5608 59.852 41.888H60.452ZM61.4002 39.0475C62.0262 38.3567 62.9269 37.994 64.148 37.994V37.394C62.801 37.394 61.7217 37.7993 60.9557 38.6445L61.4002 39.0475ZM64.148 37.994C65.3693 37.994 66.2625 38.3568 66.8759 39.0455L67.324 38.6465C66.5694 37.7992 65.4946 37.394 64.148 37.394V37.994ZM66.8792 39.0492C67.5128 39.7374 67.844 40.6725 67.844 41.888H68.444C68.444 40.5595 68.0791 39.4666 67.3207 38.6428L66.8792 39.0492ZM66.32 41.888C66.32 41.1152 66.1492 40.4703 65.7689 39.9914L65.299 40.3646C65.5667 40.7017 65.72 41.1968 65.72 41.888H66.32ZM65.7715 39.9948C65.3827 39.4908 64.8271 39.248 64.148 39.248V39.848C64.6688 39.848 65.0372 40.0252 65.2964 40.3612L65.7715 39.9948ZM64.148 39.248C63.4688 39.248 62.9132 39.4908 62.5244 39.9948L62.9995 40.3612C63.2587 40.0252 63.6271 39.848 64.148 39.848V39.248ZM62.527 39.9914C62.1467 40.4703 61.976 41.1152 61.976 41.888H62.576C62.576 41.1968 62.7292 40.7017 62.9969 40.3646L62.527 39.9914ZM61.976 41.888V42.968H62.576V41.888H61.976ZM61.976 42.968C61.976 43.7415 62.147 44.39 62.5244 44.8792L62.9995 44.5128C62.7289 44.162 62.576 43.6585 62.576 42.968H61.976ZM62.5244 44.8792C62.9132 45.3832 63.4688 45.626 64.148 45.626V45.026C63.6271 45.026 63.2587 44.8488 62.9995 44.5128L62.5244 44.8792ZM64.148 45.626C64.8271 45.626 65.3827 45.3832 65.7715 44.8792L65.2964 44.5128C65.0372 44.8488 64.6688 45.026 64.148 45.026V45.626ZM65.7715 44.8792C66.1489 44.39 66.32 43.7415 66.32 42.968H65.72C65.72 43.6585 65.567 44.162 65.2964 44.5128L65.7715 44.8792ZM66.32 42.968V41.888H65.72V42.968H66.32Z" fill="black" mask="url(#path-5-outside-1_17_12)"/>
</svg>
