<svg width="75" height="75" viewBox="0 0 75 75" fill="none" xmlns="http://www.w3.org/2000/svg">
<rect width="75" height="75" fill="white"/>
<path d="M45.5 3V20.9521L47.4512 20.999L66 21.4512V70H12V3H45.5ZM62.6543 17.3691L49.5 17.0479V5.49805L62.6543 17.3691Z" fill="white" stroke="black" stroke-width="4"/>
<path d="M33.7021 20.8633C36.5401 20.2568 39.4728 20.4116 42.2412 21.3145C45.0056 22.2161 47.5193 23.8349 49.5635 26.0244L52.3877 28.8145V26.1787C52.3877 25.4692 52.6484 24.7811 53.123 24.2686C53.5989 23.7547 54.2535 23.458 54.9443 23.458C55.635 23.4581 56.2889 23.7549 56.7646 24.2686C57.2393 24.7811 57.5 25.4692 57.5 26.1787V35.0586C57.5 35.7681 57.2393 36.4562 56.7646 36.9688C56.2889 37.4824 55.635 37.7792 54.9443 37.7793H46.7207C46.0299 37.7793 45.3753 37.4826 44.8994 36.9688C44.4248 36.4562 44.1641 35.7681 44.1641 35.0586C44.1641 34.3492 44.425 33.6619 44.8994 33.1494C45.3753 32.6356 46.0299 32.3389 46.7207 32.3389H48.4326L46.043 29.9785L46.042 29.9775C46.0245 29.9601 45.9942 29.9298 45.9629 29.8945C44.5091 28.3257 42.7236 27.1699 40.7656 26.5254C38.808 25.881 36.7349 25.7661 34.7275 26.1904C32.7199 26.6148 30.8356 27.5663 29.2422 28.9648C27.6486 30.3636 26.3949 32.1675 25.5938 34.2188C24.7927 36.27 24.4696 38.504 24.6553 40.7236C24.841 42.9433 25.529 45.0776 26.6562 46.9385C27.7835 48.7992 29.3144 50.3286 31.1113 51.3945C32.908 52.4602 34.9173 53.0306 36.9619 53.0596H37.127C40.3097 53.0679 43.3816 51.7539 45.7031 49.377L45.7041 49.376C46.194 48.8763 46.8563 48.6 47.5469 48.6211C48.2374 48.6422 48.8831 48.9588 49.3447 49.4863C49.805 50.0125 50.0478 50.7069 50.0293 51.416C50.0107 52.1255 49.7318 52.806 49.2432 53.3047L49.2422 53.3037C45.9773 56.6451 41.6405 58.5098 37.126 58.499V58.5H36.8838C33.9904 58.456 31.1532 57.6456 28.6221 56.1426C26.0912 54.6397 23.9446 52.4907 22.3682 49.8887C20.7919 47.2868 19.8325 44.3092 19.5723 41.2178C19.3121 38.1263 19.7589 35.0122 20.874 32.1484C21.9892 29.2846 23.7397 26.7558 25.9756 24.7871C28.2116 22.8183 30.8645 21.4697 33.7021 20.8633Z" fill="#C35112" stroke="#C35112"/>
</svg>
