<svg width="75" height="75" viewBox="0 0 75 75" fill="none" xmlns="http://www.w3.org/2000/svg">
<rect width="75" height="75" fill="white"/>
<path d="M66 70H12V3H56.4181L66 10.7398L66 70Z" fill="white" stroke="black" stroke-width="4"/>
<rect x="21.5" y="2.5" width="35" height="8" fill="#5A5759" stroke="black"/>
<path d="M38 17V27H18V17H38ZM18 29H38V39H18V29ZM40 39V29H60V39H40ZM18 41H38V51H18V41ZM40 51V41H60V51H40ZM18 53H38V63H18V53ZM40 63V53H60V63H40ZM40 27V17H60V27H40Z" fill="#F1CDAA" fill-opacity="0.9" stroke="black" stroke-width="2"/>
</svg>
