<svg width="75" height="75" viewBox="0 0 75 75" fill="none" xmlns="http://www.w3.org/2000/svg">
<g clip-path="url(#clip0_11_475)">
<rect width="75" height="75" fill="white"/>
<path d="M45.5 19V20.9518L47.4512 20.9994L66 21.4518L66 70H12V3H45.5L45.5 19ZM49.5 17.0482L49.5 5.49887L62.6534 17.369L49.5 17.0482Z" fill="white" stroke="black" stroke-width="4"/>
<path d="M16.632 48V28.96H22.904C24.9013 28.96 26.3947 29.464 27.384 30.472C28.392 31.48 28.896 32.824 28.896 34.504V35.988C28.896 37.668 28.392 39.0213 27.384 40.048C26.3947 41.056 24.9013 41.56 22.904 41.56H19.992V48H16.632ZM22.904 32.18H19.992V38.34H22.904C23.7253 38.34 24.3507 38.1347 24.78 37.724C25.228 37.3133 25.452 36.7347 25.452 35.988V34.504C25.452 33.776 25.228 33.2067 24.78 32.796C24.3507 32.3853 23.7253 32.18 22.904 32.18ZM32.7101 48V28.96H39.1501C41.4275 28.96 43.1635 29.5947 44.3581 30.864C45.5528 32.1333 46.1501 34 46.1501 36.464V40.468C46.1501 42.9507 45.5528 44.8267 44.3581 46.096C43.1635 47.3653 41.4275 48 39.1501 48H32.7101ZM39.0101 32.18H36.0701V44.78H39.0101C40.3355 44.78 41.2781 44.4533 41.8381 43.8C42.4168 43.1467 42.7061 42.036 42.7061 40.468V36.464C42.7061 34.9147 42.4168 33.8133 41.8381 33.16C41.2781 32.5067 40.3355 32.18 39.0101 32.18ZM60.3369 40.692H53.9529V48H50.5929V28.96H61.1769V32.18H53.9529V37.472H60.3369V40.692Z" fill="#C35112"/>
</g>
<defs>
<clipPath id="clip0_11_475">
<rect width="75" height="75" fill="white"/>
</clipPath>
</defs>
</svg>
