<svg width="75" height="75" viewBox="0 0 75 75" fill="none" xmlns="http://www.w3.org/2000/svg">
<path d="M73 72H4V38.4159V3" stroke="black" stroke-width="5"/>
<path d="M15 62L62 14" stroke="#5A5759" stroke-width="3"/>
<path d="M37 33.5C34.5147 33.5 32.5 31.4853 32.5 29C32.5 26.5147 34.5147 24.5 37 24.5C39.4853 24.5 41.5 26.5147 41.5 29C41.5 31.4853 39.4853 33.5 37 33.5Z" fill="#F68E2A" stroke="black"/>
<path d="M64 35.5C61.5147 35.5 59.5 33.4853 59.5 31C59.5 28.5147 61.5147 26.5 64 26.5C66.4853 26.5 68.5 28.5147 68.5 31C68.5 33.4853 66.4853 35.5 64 35.5Z" fill="#F68E2A" stroke="black"/>
<path d="M49 45.5C46.5147 45.5 44.5 43.4853 44.5 41C44.5 38.5147 46.5147 36.5 49 36.5C51.4853 36.5 53.5 38.5147 53.5 41C53.5 43.4853 51.4853 45.5 49 45.5Z" fill="#F68E2A" stroke="black"/>
<path d="M32 64.5C29.5147 64.5 27.5 62.4853 27.5 60C27.5 57.5147 29.5147 55.5 32 55.5C34.4853 55.5 36.5 57.5147 36.5 60C36.5 62.4853 34.4853 64.5 32 64.5Z" fill="#F68E2A" stroke="black"/>
<path d="M17 45.5C14.5147 45.5 12.5 43.4853 12.5 41C12.5 38.5147 14.5147 36.5 17 36.5C19.4853 36.5 21.5 38.5147 21.5 41C21.5 43.4853 19.4853 45.5 17 45.5Z" fill="#C35112" stroke="black"/>
<path d="M22 28.5C19.5147 28.5 17.5 26.4853 17.5 24C17.5 21.5147 19.5147 19.5 22 19.5C24.4853 19.5 26.5 21.5147 26.5 24C26.5 26.4853 24.4853 28.5 22 28.5Z" fill="#C35112" stroke="black"/>
<path d="M47 20.5C44.5147 20.5 42.5 18.4853 42.5 16C42.5 13.5147 44.5147 11.5 47 11.5C49.4853 11.5 51.5 13.5147 51.5 16C51.5 18.4853 49.4853 20.5 47 20.5Z" fill="#C35112" stroke="black"/>
<path d="M52 64.5C49.5147 64.5 47.5 62.4853 47.5 60C47.5 57.5147 49.5147 55.5 52 55.5C54.4853 55.5 56.5 57.5147 56.5 60C56.5 62.4853 54.4853 64.5 52 64.5Z" fill="#C35112" stroke="black"/>
</svg>
