<svg width="75" height="75" viewBox="0 0 75 75" fill="none" xmlns="http://www.w3.org/2000/svg">
<path d="M73 72H4V38.4159V3" stroke="black" stroke-width="5"/>
<path d="M15 62L62 14" stroke="#5A5759" stroke-width="3"/>
<path d="M49 45.5C47.067 45.5 45.5 43.933 45.5 42C45.5 40.067 47.067 38.5 49 38.5C50.933 38.5 52.5 40.067 52.5 42C52.5 43.933 50.933 45.5 49 45.5Z" fill="#F68E2A" stroke="black"/>
<path d="M23 25.5C21.067 25.5 19.5 23.933 19.5 22C19.5 20.067 21.067 18.5 23 18.5C24.933 18.5 26.5 20.067 26.5 22C26.5 23.933 24.933 25.5 23 25.5Z" fill="#F68E2A" stroke="black"/>
<path d="M37 29.5C35.067 29.5 33.5 27.933 33.5 26C33.5 24.067 35.067 22.5 37 22.5C38.933 22.5 40.5 24.067 40.5 26C40.5 27.933 38.933 29.5 37 29.5Z" fill="#F68E2A" stroke="black"/>
<path d="M19 45.5C17.067 45.5 15.5 43.933 15.5 42C15.5 40.067 17.067 38.5 19 38.5C20.933 38.5 22.5 40.067 22.5 42C22.5 43.933 20.933 45.5 19 45.5Z" fill="#C35112" stroke="black"/>
<path d="M62 29.5C60.067 29.5 58.5 27.933 58.5 26C58.5 24.067 60.067 22.5 62 22.5C63.933 22.5 65.5 24.067 65.5 26C65.5 27.933 63.933 29.5 62 29.5Z" fill="#C35112" stroke="black"/>
<path d="M53 13.5C51.067 13.5 49.5 11.933 49.5 10C49.5 8.067 51.067 6.5 53 6.5C54.933 6.5 56.5 8.067 56.5 10C56.5 11.933 54.933 13.5 53 13.5Z" fill="#C35112" stroke="black"/>
<path d="M38 15.5C36.067 15.5 34.5 13.933 34.5 12C34.5 10.067 36.067 8.5 38 8.5C39.933 8.5 41.5 10.067 41.5 12C41.5 13.933 39.933 15.5 38 15.5Z" fill="#C35112" stroke="black"/>
<path d="M54 59.5C52.067 59.5 50.5 57.933 50.5 56C50.5 54.067 52.067 52.5 54 52.5C55.933 52.5 57.5 54.067 57.5 56C57.5 57.933 55.933 59.5 54 59.5Z" fill="#C35112" stroke="black"/>
<path d="M33 61.5C31.067 61.5 29.5 59.933 29.5 58C29.5 56.067 31.067 54.5 33 54.5C34.933 54.5 36.5 56.067 36.5 58C36.5 59.933 34.933 61.5 33 61.5Z" fill="#C35112" stroke="black"/>
</svg>
